<svg width="26" height="26" viewBox="0 0 26 26" fill="none" xmlns="http://www.w3.org/2000/svg">
<path d="M24.0016 13C24.0016 16.8531 22.0094 20.2516 19 22.2156V19.5016C19 18.1234 17.8797 17.0031 16.5016 17.0031H9.49844C8.12031 17.0031 7 18.1234 7 19.5016V22.2156C3.99063 20.2516 1.99844 16.8531 1.99844 13C1.99844 6.93438 6.93438 1.99844 13 1.99844C14.125 1.99844 15.2125 2.16719 16.2344 2.48594V1.44531C15.2031 1.15469 14.1203 1 13 1C6.38125 1 1 6.38125 1 13C1 19.6187 6.38125 25 13 25C19.6187 25 25 19.6187 25 13C25 11.4906 24.7188 10.0422 24.2078 8.71094H23.1297C23.6875 10.0281 24.0016 11.4812 24.0016 13ZM18.0016 22.7969C16.5016 23.5656 14.8 24.0016 13 24.0016C11.2 24.0016 9.50313 23.5656 7.99844 22.7969V19.5016C7.99844 18.6766 8.67344 18.0016 9.49844 18.0016H16.4969C17.3219 18.0016 17.9969 18.6766 17.9969 19.5016V22.7969H18.0016Z" fill="white" stroke="white"/>
<path d="M16.2344 8.65C15.5078 7.65156 14.3266 7 13 7C10.7922 7 9.00159 8.79531 9.00159 10.9984C9.00159 13.2063 10.7969 14.9969 13 14.9969C15.2031 14.9969 16.9985 13.2016 16.9985 10.9984C16.9985 10.1453 16.7313 9.35781 16.2766 8.70625H16.2344V8.65ZM13 13.9984C11.3453 13.9984 10 12.6531 10 10.9984C10 9.34375 11.3453 7.99844 13 7.99844C14.6547 7.99844 16 9.34375 16 10.9984C16 12.6531 14.6547 13.9984 13 13.9984Z" fill="white" stroke="white"/>
<path d="M20.9734 5.2047C21.6154 5.2047 22.1359 4.68423 22.1359 4.0422C22.1359 3.40017 21.6154 2.8797 20.9734 2.8797C20.3314 2.8797 19.8109 3.40017 19.8109 4.0422C19.8109 4.68423 20.3314 5.2047 20.9734 5.2047Z" fill="#FFDA57" stroke="#FFDA57"/>
</svg>
