<svg width="76" height="76" viewBox="0 0 76 76" fill="none" xmlns="http://www.w3.org/2000/svg">
<path d="M0 14C0 6.26801 6.26801 0 14 0H76V76H0V14Z" fill="black"/>
<path d="M54.862 28.8816C53.3786 26.5111 51.5704 24.5729 49.4671 23.0671C47.3638 21.5612 44.9505 20.4878 42.2494 19.8467C37.814 18.7956 33.4966 19.2652 29.3417 21.1438C27.0465 22.18 25.0096 23.6187 23.2605 25.4376C21.076 27.7112 19.4966 30.2905 18.5299 33.168C18.5225 33.1978 18.5151 33.2201 18.5077 33.25C18.4708 33.3543 18.4413 33.4512 18.4118 33.5556C17.4228 36.8803 18.3454 38.7216 19.7992 37.186C19.8583 37.1189 19.9173 37.0518 19.969 36.9921C19.9911 36.9623 20.0133 36.94 20.0354 36.9101C21.7328 34.7558 24.4339 32.9592 24.4339 32.9592C25.1203 32.4747 25.8361 32.0274 26.5815 31.6025C27.4302 31.1031 28.3158 30.6409 29.1424 30.3278C29.1424 30.3278 29.9099 29.97 30.1166 28.8891C30.1166 28.8667 30.124 28.8518 30.1313 28.8294C30.1313 28.822 30.1313 28.8071 30.1313 28.7996C30.2716 27.8976 31.2236 25.4227 33.9247 25.2661C34.7734 25.1469 35.6073 25.3034 36.3527 25.6538C37.659 26.28 38.6553 27.5323 38.8546 29.0381C39.0169 30.2383 38.7291 31.3714 38.124 32.266C38.0944 32.3181 38.0575 32.3703 38.0133 32.4225C37.9985 32.4374 37.9911 32.4523 37.9764 32.4672C37.4671 33.1307 36.7734 33.6451 35.9468 33.9283C35.4524 34.1147 34.9431 34.2116 34.4634 34.2191C34.1609 34.2563 33.8214 34.2191 33.4893 34.1371C33.1055 34.0625 32.7586 33.9283 32.4561 33.7569C31.9321 33.5109 31.5114 33.2276 31.3564 33.086C31.231 32.9741 31.0981 32.9071 30.9727 32.8772C30.6848 32.8325 30.4561 32.8772 30.2863 32.9592C30.1904 33.004 30.1166 33.0487 30.0649 33.086C29.4155 33.6301 28.8029 34.2041 28.2199 34.8005C26.6848 36.4256 25.4007 38.2743 24.7955 39.1838C24.4782 39.6981 24.1756 40.2274 23.8878 40.7716C23.6221 41.2785 23.3786 41.7854 23.1498 42.2998C22.7955 43.1123 22.4561 43.992 22.1535 44.9312C22.1387 44.976 22.124 45.0207 22.1092 45.058C22.0871 45.1176 22.0723 45.1772 22.0575 45.2369C22.0428 45.2965 22.0206 45.3561 22.0059 45.4158C20.1461 51.8416 23.4966 55.554 26.2937 51.6776C26.4487 51.4316 26.6037 51.1856 26.766 50.9471C29.7033 45.8109 35.7328 42.106 35.7328 42.106C36.1018 41.8674 36.4708 41.6363 36.8546 41.4201C36.8546 41.4201 36.8841 41.4052 36.9284 41.3754C37.9616 40.7791 39.0243 40.2423 40.1166 39.7727C41.0907 39.3329 42.124 38.9303 42.98 38.7141C42.98 38.7141 43.9837 38.4532 44.2568 37.2009C44.4487 36.3063 45.0907 34.9943 46.5446 34.2936C46.8841 34.1147 47.2457 33.988 47.6 33.906C47.9911 33.8165 48.3823 33.7867 48.7586 33.8016C49.0022 33.8016 49.2162 33.824 49.3933 33.8761C51.2383 34.234 52.7439 35.7621 52.9653 37.7749C53.231 40.2125 51.5557 42.4191 49.1498 42.7247C47.9542 42.8738 46.8693 42.6129 45.9468 41.9047C44.9062 41.4649 44.1092 41.7481 43.8214 41.8823C42.9136 42.3818 42.0502 42.9334 41.2162 43.5447C39.6738 44.7076 38.4413 45.9152 37.9542 46.4147C36.8841 47.5329 35.9395 48.7181 35.1203 49.978C35.076 50.0451 35.0317 50.1121 34.9874 50.1867C34.9727 50.2016 34.9653 50.224 34.9505 50.2389C34.1092 51.5956 33.2088 53.34 32.4708 55.4421C32.4118 55.6061 32.3601 55.7701 32.3085 55.9341C31.5188 58.6327 33.231 59.7061 35.2088 60.1012C35.2088 60.1012 36.7586 60.4069 38.9948 60.2354C39.1276 60.2205 39.2457 60.2131 39.3417 60.2056C39.9026 60.1385 40.4708 60.0714 41.0317 59.982C44.8915 59.3185 48.3011 57.6934 51.2088 55.0471C54.8767 51.7223 57.0834 47.5701 57.7697 42.6501C58.4561 37.7152 57.4893 33.0934 54.8472 28.8816H54.862Z" fill="white"/>
</svg>
