<svg width="26" height="26" viewBox="0 0 26 26" fill="none" xmlns="http://www.w3.org/2000/svg">
<path d="M26 13C26 15.6122 26 17.3738 25.9392 18.3458C25.8177 20.7149 25.1494 22.5375 23.8131 23.8131C22.4766 25.0888 20.7149 25.8178 18.3458 25.9392C17.3738 26 15.5514 26 13 26C10.3878 26 8.62616 26 7.65419 25.9392C5.28504 25.8178 3.46261 25.1496 2.18692 23.8131C0.911211 22.5375 0.182243 20.7149 0.0607473 18.3458C5.14555e-09 17.3738 0 15.5514 0 13C0 10.4486 5.14555e-09 8.62618 0.0607473 7.65421C0.182243 5.28506 0.850466 3.46262 2.18692 2.18691C3.46261 0.911216 5.28504 0.182242 7.65419 0.0607475C8.62616 5.14556e-09 10.4486 0 13 0C15.6122 0 17.3738 5.14556e-09 18.3458 0.0607475C20.7149 0.182242 22.5374 0.850469 23.8131 2.18691C25.0888 3.52337 25.8177 5.28506 25.9392 7.65421C25.9392 8.62618 26 10.3879 26 13ZM14.2757 2.30841C13.4859 2.30841 13.0607 2.30841 13 2.30841C12.9392 2.30841 12.514 2.30841 11.7243 2.30841C10.9346 2.30841 10.3271 2.30841 9.9626 2.30841C9.53736 2.30841 8.99064 2.30841 8.32242 2.36917C7.6542 2.36917 7.04671 2.42992 6.56073 2.55141C6.07476 2.61216 5.64953 2.73365 5.34579 2.85515C4.79906 3.09814 4.31307 3.40188 3.82709 3.82711C3.40186 4.25234 3.09813 4.73832 2.85514 5.34581C2.73364 5.64955 2.61215 6.07478 2.5514 6.56076C2.49065 7.04674 2.42991 7.59346 2.36916 8.32245C2.36916 8.99067 2.30841 9.5374 2.30841 9.96263C2.30841 10.3879 2.30841 10.9953 2.30841 11.7243C2.30841 12.514 2.30841 12.9393 2.30841 13C2.30841 13.0608 2.30841 13.486 2.30841 14.2757C2.30841 15.0655 2.30841 15.6729 2.30841 16.0374C2.30841 16.4626 2.30841 17.0094 2.36916 17.6775C2.36916 18.3458 2.42991 18.9533 2.5514 19.4393C2.6729 19.9253 2.73364 20.3505 2.85514 20.6543C3.09813 21.201 3.40186 21.6869 3.82709 22.173C4.25232 22.5981 4.73832 22.9019 5.34579 23.145C5.64953 23.2664 6.07476 23.3879 6.56073 23.4487C7.04671 23.5093 7.59344 23.5701 8.32242 23.6309C9.05139 23.6917 9.53736 23.6917 9.9626 23.6917C10.3878 23.6917 10.9953 23.6917 11.7243 23.6917C12.514 23.6917 12.9392 23.6917 13 23.6917C13.0607 23.6917 13.4859 23.6917 14.2757 23.6917C15.0654 23.6917 15.6728 23.6917 16.0373 23.6917C16.4626 23.6917 17.0093 23.6917 17.6776 23.6309C18.3458 23.6309 18.9533 23.5701 19.4392 23.4487C19.9251 23.3879 20.3504 23.2664 20.6542 23.145C21.2009 22.9019 21.6869 22.5981 22.1728 22.173C22.5981 21.7477 22.9019 21.2618 23.1448 20.6543C23.2664 20.3505 23.3878 19.9253 23.4486 19.4393C23.5093 18.9533 23.5701 18.4066 23.6307 17.6775C23.6307 17.0094 23.6915 16.4626 23.6915 16.0374C23.6915 15.6122 23.6915 15.0047 23.6915 14.2757C23.6915 13.486 23.6915 13.0608 23.6915 13C23.6915 12.9393 23.6915 12.514 23.6915 11.7243C23.6915 10.9346 23.6915 10.3271 23.6915 9.96263C23.6915 9.5374 23.6915 8.99067 23.6307 8.32245C23.6307 7.65421 23.5701 7.04674 23.4486 6.56076C23.3878 6.07478 23.2664 5.64955 23.1448 5.34581C22.9019 4.79907 22.5981 4.31309 22.1728 3.82711C21.7477 3.40188 21.2616 3.09814 20.6542 2.85515C20.3504 2.73365 19.9251 2.61216 19.4392 2.55141C18.9533 2.49066 18.4065 2.42992 17.6776 2.36917C17.0093 2.36917 16.4626 2.30841 16.0373 2.30841C15.6728 2.30841 15.0654 2.30841 14.2757 2.30841ZM17.6776 8.2617C18.9533 9.5374 19.6214 11.1168 19.6214 13C19.6214 14.8831 18.9533 16.402 17.6776 17.7383C16.4018 19.014 14.8224 19.6823 12.9392 19.6823C11.0561 19.6823 9.53736 19.014 8.20092 17.7383C6.92522 16.4626 6.257 14.8831 6.257 13C6.257 11.1168 6.92522 9.59814 8.20092 8.2617C9.47662 6.98599 11.0561 6.31777 12.9392 6.31777C14.8224 6.31777 16.4018 6.92524 17.6776 8.2617ZM16.0373 16.0374C16.8878 15.1869 17.3131 14.1542 17.3131 13C17.3131 11.8458 16.8878 10.7523 16.0373 9.90188C15.1869 9.05142 14.1541 8.62618 12.9392 8.62618C11.7243 8.62618 10.6916 9.05142 9.8411 9.90188C8.99064 10.7523 8.56541 11.7851 8.56541 13C8.56541 14.215 8.99064 15.2476 9.8411 16.0374C10.6916 16.8879 11.7243 17.3132 12.9392 17.3132C14.1541 17.3132 15.1869 16.8879 16.0373 16.0374ZM21.0187 4.92056C21.3224 5.22431 21.5046 5.5888 21.5046 6.01403C21.5046 6.43926 21.3224 6.80375 21.0187 7.10748C20.7149 7.41122 20.3504 7.59346 19.9251 7.59346C19.5 7.59346 19.1355 7.41122 18.8317 7.10748C18.528 6.80375 18.3458 6.43926 18.3458 6.01403C18.3458 5.5888 18.528 5.22431 18.8317 4.92056C19.1355 4.61683 19.5 4.43458 19.9251 4.43458C20.3504 4.43458 20.7149 4.61683 21.0187 4.92056Z" fill="white"/>
</svg>
