<svg width="33" height="25" viewBox="0 0 33 25" fill="none" xmlns="http://www.w3.org/2000/svg">
<g clip-path="url(#clip0_26_117)">
<path d="M31.972 4.63141C31.7846 3.91888 31.4186 3.26929 30.9109 2.74734C30.4032 2.22538 29.7716 1.84927 29.0786 1.65647C26.5414 0.945068 16.3302 0.945068 16.3302 0.945068C16.3302 0.945068 6.11902 0.966625 3.58194 1.67803C2.88891 1.87082 2.2571 2.24695 1.74943 2.7689C1.24177 3.29084 0.87595 3.94043 0.688418 4.65297C-0.0789936 9.28784 -0.376733 16.3501 0.709387 20.7995C0.896917 21.512 1.26273 22.1617 1.7704 22.6836C2.27808 23.2056 2.90989 23.5817 3.6029 23.7745C6.13998 24.486 16.3512 24.486 16.3512 24.486C16.3512 24.486 26.5624 24.486 29.0994 23.7745C29.7924 23.5817 30.4243 23.2056 30.9319 22.6836C31.4396 22.1617 31.8054 21.512 31.993 20.7995C32.8023 16.1582 33.0518 9.10029 31.972 4.63141Z" fill="white"/>
<path d="M13.0806 17.7601L21.5514 12.7156L13.0806 7.67114V17.7601Z" fill="#262626"/>
</g>
<defs>
<clipPath id="clip0_26_117">
<rect width="33" height="25" fill="white"/>
</clipPath>
</defs>
</svg>
