<svg width="28" height="26" viewBox="0 0 28 26" fill="none" xmlns="http://www.w3.org/2000/svg">
<path d="M22.6551 25.1597C22.4418 25.1597 22.2301 25.0968 22.0484 24.9742L15.1857 20.3368L11.5048 22.9752C11.2161 23.1819 10.844 23.2341 10.5088 23.1146C10.174 22.995 9.91979 22.7187 9.82903 22.3762L7.98084 15.3988L1.37703 12.8835C0.961293 12.725 0.685577 12.3288 0.682551 11.8854C0.679526 11.442 0.94977 11.0421 1.36349 10.878L26.4737 0.924828C26.5875 0.876613 26.7081 0.848774 26.8296 0.841312C26.8731 0.838728 26.9169 0.838728 26.9603 0.841168C27.212 0.856092 27.4594 0.958264 27.6524 1.14682C27.6724 1.16634 27.6914 1.18629 27.7095 1.2071C27.8693 1.38905 27.9572 1.61091 27.9738 1.83693C27.9778 1.89375 27.9775 1.9513 27.9725 2.00883C27.9691 2.04988 27.9631 2.09077 27.9547 2.13139L23.7164 24.2849C23.6482 24.6408 23.405 24.9387 23.0691 25.0775C22.9358 25.1325 22.795 25.1597 22.6551 25.1597ZM15.7882 18.1429L21.9014 22.2735L25.1993 5.03571L13.288 16.4534L15.7593 18.1235C15.7693 18.1297 15.7789 18.1364 15.7882 18.1429ZM10.6993 17.2243L11.5178 20.314L13.2813 19.0498L10.9721 17.4894C10.8648 17.4172 10.7729 17.327 10.6993 17.2243ZM4.73562 11.858L9.27012 13.5851C9.59495 13.7087 9.84013 13.9808 9.92887 14.3158L10.5039 16.4868C10.5303 16.2363 10.6442 16.0007 10.8293 15.8232L22.1791 4.94385L4.73562 11.858Z" fill="white"/>
</svg>
