<svg width="14" height="14" viewBox="0 0 14 14" fill="none" xmlns="http://www.w3.org/2000/svg">
<path d="M10.585 5.64471L6.63497 1.69471C6.45281 1.50611 6.35201 1.25351 6.35429 0.991311C6.35657 0.729114 6.46174 0.478301 6.64715 0.292893C6.83255 0.107485 7.08337 0.00231622 7.34556 3.78026e-05C7.60776 -0.00224062 7.86036 0.0985537 8.04897 0.280712L13.706 5.93771C13.7992 6.03037 13.8731 6.14053 13.9236 6.26186C13.974 6.38319 14 6.5133 14 6.64471C14 6.77612 13.974 6.90623 13.9236 7.02757C13.8731 7.1489 13.7992 7.25906 13.706 7.35171L8.04897 13.0087C7.85951 13.1864 7.60838 13.2833 7.3487 13.2791C7.08901 13.2749 6.84116 13.1698 6.65757 12.9861C6.47399 12.8024 6.36908 12.5545 6.36505 12.2948C6.36102 12.0351 6.45818 11.784 6.63596 11.5947L10.586 7.64471L0.999965 7.64471C0.734748 7.64471 0.480394 7.53935 0.292858 7.35182C0.105322 7.16428 -3.52859e-05 6.90993 -3.52859e-05 6.64471C-3.52859e-05 6.3795 0.105322 6.12514 0.292858 5.93761C0.480394 5.75007 0.734748 5.64471 0.999965 5.64471L10.585 5.64471Z" fill="black"/>
</svg>
