<svg width="351" height="160" viewBox="0 0 351 160" fill="none" xmlns="http://www.w3.org/2000/svg">
<mask id="mask0_26_163" style="mask-type:luminance" maskUnits="userSpaceOnUse" x="0" y="0" width="351" height="160">
<path d="M351 0H0V160H351V0Z" fill="white"/>
</mask>
<g mask="url(#mask0_26_163)">
<path d="M303.407 160V75.8518" stroke="black" stroke-width="2" stroke-linecap="round" stroke-dasharray="4 8"/>
<path d="M47.5932 160V111.407" stroke="black" stroke-width="2" stroke-linecap="round" stroke-dasharray="4 8"/>
<path d="M176.095 160V86.5186" stroke="black" stroke-width="2" stroke-linecap="round" stroke-dasharray="4 8"/>
<path d="M24.9865 116.148C143.729 86.3828 236.485 76.2896 351 72.8672M1075.61 13.0371C972.243 46.559 872.656 61.2687 749.593 67.301M374.797 72.2548C427.147 71.1112 484.444 71.1112 550.892 71.1112C615.026 71.1112 672.648 70.4435 725.797 68.3504" stroke="black" stroke-width="2" stroke-linecap="round"/>
<path d="M238.607 26.0742H112.393C110.776 26.0742 109.464 27.3878 109.464 29.008V130.993C109.464 132.613 110.776 133.926 112.393 133.926H238.607C240.224 133.926 241.536 132.613 241.536 130.993V29.008C241.536 27.3878 240.224 26.0742 238.607 26.0742Z" fill="#F3FAFD" stroke="black" stroke-width="2" stroke-linecap="round" stroke-linejoin="round"/>
<path d="M124.864 87.8393C125.327 86.901 169.15 41.5984 169.15 41.5984L228.136 97.0923" stroke="black" stroke-width="2" stroke-linecap="round" stroke-linejoin="round"/>
<path d="M129.399 82.8623V118.092H224.797V94.3603" stroke="black" stroke-width="2" stroke-linecap="round" stroke-linejoin="round"/>
<path d="M162.83 90.9631H146.242V118.081H162.83V90.9631Z" stroke="black" stroke-width="2" stroke-linecap="round" stroke-linejoin="round"/>
<path d="M205.549 83.5996H193.029V99.1241H205.549V83.5996Z" stroke="black" stroke-width="2" stroke-linecap="round" stroke-linejoin="round"/>
</g>
</svg>
