<svg width="28" height="28" viewBox="0 0 28 28" fill="none" xmlns="http://www.w3.org/2000/svg">
<path d="M9.33333 14H7C5.71317 14 4.66667 15.0465 4.66667 16.3333V18.6667C4.66667 19.9535 5.71317 21 7 21H9.33333C10.6202 21 11.6667 19.9535 11.6667 18.6667V16.3333C11.6667 15.0465 10.6202 14 9.33333 14ZM7 18.6667V16.3333H9.33333V18.6667H7ZM22.1667 2.33333H21V1.16667C21 0.522667 20.4785 0 19.8333 0C19.1882 0 18.6667 0.522667 18.6667 1.16667V2.33333H9.33333V1.16667C9.33333 0.522667 8.81183 0 8.16667 0C7.5215 0 7 0.522667 7 1.16667V2.33333H5.83333C2.61683 2.33333 0 4.95017 0 8.16667V22.1667C0 25.3832 2.61683 28 5.83333 28H22.1667C25.3832 28 28 25.3832 28 22.1667V8.16667C28 4.95017 25.3832 2.33333 22.1667 2.33333ZM5.83333 4.66667H22.1667C24.0963 4.66667 25.6667 6.237 25.6667 8.16667V9.33333H2.33333V8.16667C2.33333 6.237 3.90367 4.66667 5.83333 4.66667ZM22.1667 25.6667H5.83333C3.90367 25.6667 2.33333 24.0963 2.33333 22.1667V11.6667H25.6667V22.1667C25.6667 24.0963 24.0963 25.6667 22.1667 25.6667Z" fill="#6D6D6D"/>
</svg>
