<svg width="12" height="19" viewBox="0 0 12 19" fill="none" xmlns="http://www.w3.org/2000/svg">
<path d="M11.0524 5.00797L7.68952 1.62782C7.20069 1.15833 6.55067 0.896351 5.87463 0.896351C5.1986 0.896351 4.54858 1.15833 4.05975 1.62782L0.696899 5.00797C0.490556 5.21542 0.374634 5.49679 0.374634 5.79017C0.374634 6.08354 0.490556 6.36491 0.696899 6.57236C0.903242 6.77981 1.1831 6.89635 1.47492 6.89635C1.76673 6.89635 2.04659 6.77981 2.25293 6.57236L5.61578 3.19146C5.68454 3.12236 5.77778 3.08354 5.875 3.08354C5.97222 3.08354 6.06546 3.12236 6.13422 3.19146L9.49633 6.57236C9.70268 6.77981 9.98254 6.89635 10.2744 6.89635C10.5662 6.89635 10.846 6.77981 11.0524 6.57236C11.2587 6.36491 11.3746 6.08354 11.3746 5.79017C11.3746 5.49679 11.2587 5.21542 11.0524 5.00797Z" fill="#6D6D6D"/>
<path d="M11.0524 13.992L7.68952 17.3722C7.20069 17.8417 6.55067 18.1036 5.87463 18.1036C5.1986 18.1036 4.54858 17.8417 4.05975 17.3722L0.696899 13.992C0.490556 13.7846 0.374634 13.5032 0.374634 13.2098C0.374634 12.9165 0.490556 12.6351 0.696899 12.4276C0.903242 12.2202 1.1831 12.1036 1.47492 12.1036C1.76673 12.1036 2.04659 12.2202 2.25293 12.4276L5.61578 15.8085C5.68454 15.8776 5.77778 15.9165 5.875 15.9165C5.97222 15.9165 6.06546 15.8776 6.13422 15.8085L9.49633 12.4276C9.70268 12.2202 9.98254 12.1036 10.2744 12.1036C10.5662 12.1036 10.846 12.2202 11.0524 12.4276C11.2587 12.6351 11.3746 12.9165 11.3746 13.2098C11.3746 13.5032 11.2587 13.7846 11.0524 13.992Z" fill="#6D6D6D"/>
</svg>
