<svg width="76" height="76" viewBox="0 0 76 76" fill="none" xmlns="http://www.w3.org/2000/svg">
<path d="M0 0H76V76H14C6.26801 76 0 69.732 0 62V0Z" fill="black"/>
<path fill-rule="evenodd" clip-rule="evenodd" d="M38 19C39.6502 19 41 20.1809 41 21.6235V31.3762C41 32.8194 39.6502 34 38 34C36.3498 34 35 32.8194 35 31.3762V21.6235C35 20.1809 36.3498 19 38 19Z" fill="#FEFEFE"/>
<path fill-rule="evenodd" clip-rule="evenodd" d="M18.1234 33.7553C18.5533 32.4261 19.9872 31.692 21.3104 32.1239L30.2527 35.0429C31.576 35.4748 32.3065 36.9155 31.8767 38.2447C31.4469 39.574 30.0126 40.3081 28.6896 39.8761L19.7471 36.9573C18.4241 36.5252 17.6933 35.0846 18.1234 33.7553Z" fill="#FEFEFE"/>
<path fill-rule="evenodd" clip-rule="evenodd" d="M26.0812 56.5065C24.9111 55.667 24.6494 54.0346 25.4995 52.879L31.2455 45.0681C32.0954 43.9122 33.7485 43.6536 34.9187 44.4935C36.0889 45.3332 36.3506 46.9654 35.5005 48.121L29.7543 55.9319C28.9043 57.0878 27.2514 57.3464 26.0812 56.5065Z" fill="#FEFEFE"/>
<path fill-rule="evenodd" clip-rule="evenodd" d="M50.0172 56.5067C48.9533 57.3463 47.4508 57.0877 46.6777 55.9321L41.4543 48.1212C40.6812 46.9652 40.9192 45.333 41.9829 44.4933C43.0467 43.6537 44.5495 43.9123 45.3223 45.0677L50.5459 52.8788C51.3188 54.0344 51.0806 55.667 50.0172 56.5067Z" fill="#FEFEFE"/>
<path fill-rule="evenodd" clip-rule="evenodd" d="M57.8766 33.7553C58.3066 35.0846 57.576 36.5255 56.2525 36.9573L47.3105 39.8761C45.9874 40.3081 44.5534 39.574 44.1233 38.2447C43.6935 36.9156 44.424 35.4748 45.7473 35.0429L54.6894 32.1238C56.0123 31.692 57.4465 32.4262 57.8766 33.7553Z" fill="#FEFEFE"/>
</svg>
