<svg width="26" height="23" viewBox="0 0 26 23" fill="none" xmlns="http://www.w3.org/2000/svg">
<path d="M18.9542 0C16.472 0.038961 14.1979 1.34416 13 3.42857C11.797 1.34416 9.52798 0.038961 7.04579 0C2.9951 0.170455 -0.146972 3.44318 0.00530924 7.32468C0.00530924 9.86688 1.50782 12.5308 3.5687 15H6.42651C3.68037 12.0731 2.17278 9.39935 2.17278 7.32468C2.0205 4.58766 4.19305 2.24513 7.04579 2.07955C9.89853 2.24513 12.0711 4.58766 11.9188 7.32468C11.9188 7.89935 12.4061 8.36201 13 8.36201C13.5939 8.36201 14.0812 7.89448 14.0812 7.32468C13.9289 4.58766 16.1015 2.24513 18.9542 2.07955C21.8069 2.24513 23.9795 4.58766 23.8272 7.32468C23.8272 9.39935 22.3196 12.0731 19.5735 15H22.4313C24.4922 12.5308 25.9947 9.86688 25.9947 7.32468C26.147 3.44318 23.0049 0.170455 18.9542 0Z" fill="white"/>
<path d="M19.2723 16C18.0792 17.3448 16.6386 18.7438 14.9802 20.1576V20.1626C13.8366 21.1429 12.1683 21.1429 11.0248 20.1626C9.36139 18.7438 7.92574 17.3448 6.73267 16H4C5.68812 18.1429 7.77723 20.1379 9.69307 21.7734C11.604 23.4089 14.396 23.4089 16.3069 21.7734C18.2228 20.1379 20.3119 18.1429 22 16H19.2723Z" fill="#FFDA57"/>
</svg>
