<svg width="268" height="78" viewBox="0 0 268 78" fill="none" xmlns="http://www.w3.org/2000/svg">
<path d="M0 0H134V77H10C4.47715 77 0 72.5229 0 67V0Z" fill="#FFBC57"/>
<path d="M138 0H258C263.523 0 268 4.47715 268 10V77H138V0Z" fill="#313131"/>
<path d="M47.76 18.384V54H40.608V51.024C38.752 53.264 36.064 54.384 32.544 54.384C30.112 54.384 27.904 53.84 25.92 52.752C23.968 51.664 22.432 50.112 21.312 48.096C20.192 46.08 19.632 43.744 19.632 41.088C19.632 38.432 20.192 36.096 21.312 34.08C22.432 32.064 23.968 30.512 25.92 29.424C27.904 28.336 30.112 27.792 32.544 27.792C35.84 27.792 38.416 28.832 40.272 30.912V18.384H47.76ZM33.84 48.24C35.728 48.24 37.296 47.6 38.544 46.32C39.792 45.008 40.416 43.264 40.416 41.088C40.416 38.912 39.792 37.184 38.544 35.904C37.296 34.592 35.728 33.936 33.84 33.936C31.92 33.936 30.336 34.592 29.088 35.904C27.84 37.184 27.216 38.912 27.216 41.088C27.216 43.264 27.84 45.008 29.088 46.32C30.336 47.6 31.92 48.24 33.84 48.24ZM54.6904 28.176H62.1784V54H54.6904V28.176ZM58.4344 24.576C57.0584 24.576 55.9384 24.176 55.0744 23.376C54.2104 22.576 53.7784 21.584 53.7784 20.4C53.7784 19.216 54.2104 18.224 55.0744 17.424C55.9384 16.624 57.0584 16.224 58.4344 16.224C59.8104 16.224 60.9304 16.608 61.7944 17.376C62.6584 18.144 63.0904 19.104 63.0904 20.256C63.0904 21.504 62.6584 22.544 61.7944 23.376C60.9304 24.176 59.8104 24.576 58.4344 24.576ZM102.2 27.792C105.432 27.792 107.992 28.752 109.88 30.672C111.8 32.56 112.76 35.408 112.76 39.216V54H105.272V40.368C105.272 38.32 104.84 36.8 103.976 35.808C103.144 34.784 101.944 34.272 100.376 34.272C98.6159 34.272 97.2239 34.848 96.1999 36C95.1759 37.12 94.6639 38.8 94.6639 41.04V54H87.1759V40.368C87.1759 36.304 85.5439 34.272 82.2799 34.272C80.5519 34.272 79.1759 34.848 78.1519 36C77.1279 37.12 76.6159 38.8 76.6159 41.04V54H69.1279V28.176H76.2799V31.152C77.2399 30.064 78.4079 29.232 79.7839 28.656C81.1919 28.08 82.7279 27.792 84.3919 27.792C86.2159 27.792 87.8639 28.16 89.3359 28.896C90.8079 29.6 91.9919 30.64 92.8879 32.016C93.9439 30.672 95.2719 29.632 96.8719 28.896C98.5039 28.16 100.28 27.792 102.2 27.792Z" fill="white"/>
<path d="M223.93 69.075C223.71 69.075 223.525 69 223.375 68.85C223.225 68.7 223.15 68.515 223.15 68.295C223.15 68.055 223.23 67.855 223.39 67.695C223.56 67.525 223.76 67.44 223.99 67.44C224.21 67.44 224.39 67.515 224.53 67.665C224.68 67.815 224.755 68 224.755 68.22C224.755 68.46 224.67 68.665 224.5 68.835C224.34 68.995 224.15 69.075 223.93 69.075ZM230.234 69.075C229.494 69.075 228.849 68.94 228.299 68.67C227.749 68.39 227.324 68 227.024 67.5C226.734 66.99 226.589 66.4 226.589 65.73C226.589 64.84 226.784 64.04 227.174 63.33C227.564 62.62 228.109 62.065 228.809 61.665C229.509 61.255 230.299 61.05 231.179 61.05C231.909 61.05 232.534 61.185 233.054 61.455C233.584 61.715 233.994 62.105 234.284 62.625L233.384 63.15C232.934 62.37 232.169 61.98 231.089 61.98C230.439 61.98 229.849 62.14 229.319 62.46C228.799 62.78 228.389 63.22 228.089 63.78C227.799 64.34 227.654 64.975 227.654 65.685C227.654 66.455 227.879 67.055 228.329 67.485C228.789 67.915 229.439 68.13 230.279 68.13C230.789 68.13 231.259 68.035 231.689 67.845C232.129 67.645 232.489 67.36 232.769 66.99L233.534 67.575C233.184 68.045 232.714 68.415 232.124 68.685C231.544 68.945 230.914 69.075 230.234 69.075ZM238.494 69.075C237.774 69.075 237.144 68.94 236.604 68.67C236.064 68.39 235.644 68 235.344 67.5C235.054 66.99 234.909 66.4 234.909 65.73C234.909 64.84 235.104 64.04 235.494 63.33C235.884 62.62 236.424 62.065 237.114 61.665C237.814 61.255 238.599 61.05 239.469 61.05C240.569 61.05 241.439 61.35 242.079 61.95C242.729 62.55 243.054 63.36 243.054 64.38C243.054 65.27 242.859 66.075 242.469 66.795C242.079 67.505 241.534 68.065 240.834 68.475C240.144 68.875 239.364 69.075 238.494 69.075ZM238.569 68.13C239.219 68.13 239.804 67.975 240.324 67.665C240.844 67.345 241.249 66.905 241.539 66.345C241.839 65.775 241.989 65.14 241.989 64.44C241.989 63.67 241.759 63.07 241.299 62.64C240.849 62.2 240.214 61.98 239.394 61.98C238.744 61.98 238.159 62.14 237.639 62.46C237.119 62.78 236.709 63.225 236.409 63.795C236.119 64.355 235.974 64.985 235.974 65.685C235.974 66.455 236.199 67.055 236.649 67.485C237.109 67.915 237.749 68.13 238.569 68.13ZM255.609 61.05C256.499 61.05 257.184 61.275 257.664 61.725C258.154 62.165 258.399 62.785 258.399 63.585C258.399 63.815 258.364 64.125 258.294 64.515L257.394 69H256.329L257.229 64.5C257.279 64.27 257.304 64.025 257.304 63.765C257.304 63.205 257.139 62.775 256.809 62.475C256.479 62.165 255.994 62.01 255.354 62.01C254.554 62.01 253.889 62.235 253.359 62.685C252.829 63.125 252.474 63.78 252.294 64.65L251.424 69H250.359L251.259 64.5C251.309 64.22 251.334 63.98 251.334 63.78C251.334 63.21 251.169 62.775 250.839 62.475C250.519 62.165 250.034 62.01 249.384 62.01C248.574 62.01 247.904 62.245 247.374 62.715C246.844 63.175 246.484 63.86 246.294 64.77L245.454 69H244.389L245.949 61.11H246.969L246.714 62.37C247.434 61.49 248.429 61.05 249.699 61.05C250.359 61.05 250.909 61.185 251.349 61.455C251.799 61.725 252.109 62.115 252.279 62.625C252.669 62.105 253.144 61.715 253.704 61.455C254.274 61.185 254.909 61.05 255.609 61.05Z" fill="white"/>
<path d="M212.257 31.6834C199.567 27.6152 190.814 42.7381 178.125 38.6477L173.743 17.3166C186.431 21.3849 195.184 6.26201 207.875 10.3523L212.257 31.6809L212.257 31.6834Z" fill="#FED501"/>
<path d="M175.917 26.735C188.542 30.7503 197.257 15.8126 209.885 19.8496L207.708 9.34062C195.081 5.32541 186.368 20.246 173.74 16.2284L175.917 26.735Z" fill="#0467D5"/>
<path style="mix-blend-mode:multiply" opacity="0.25" d="M208.314 17.3516L209.795 24.5349L211.257 31.682C198.576 27.6288 189.811 42.7388 177.129 38.6462L172.743 17.3059C185.425 21.3936 194.17 6.28422 206.871 10.3417L208.309 17.364L208.309 17.3468L208.314 17.3516Z" fill="url(#paint0_linear_2_104)"/>
<rect x="171.213" y="16.6715" width="3.86729" height="20" transform="rotate(-10 171.213 16.6715)" fill="white"/>
<path d="M178.1 33.2157L183.254 62.4448L179.63 63.0838L179.047 59.7749C178.41 61.0786 177.502 62.1459 176.321 62.9768C175.141 63.8077 173.776 64.3597 172.227 64.633C170.204 64.9895 168.314 64.8626 166.554 64.2522C164.795 63.6417 163.314 62.6166 162.113 61.1767C160.933 59.7059 160.158 57.9201 159.787 55.8191C159.417 53.7182 159.537 51.7881 160.147 50.0287C160.784 48.2646 161.824 46.795 163.269 45.6196C164.713 44.4442 166.447 43.6783 168.469 43.3217C169.966 43.0578 171.395 43.1035 172.758 43.459C174.116 43.7882 175.312 44.4303 176.347 45.3851L174.319 33.8825L178.1 33.2157ZM171.958 61.2684C173.271 61.0369 174.413 60.5242 175.383 59.7303C176.349 58.9102 177.036 57.8954 177.446 56.6859C177.851 55.4501 177.926 54.1101 177.671 52.6657C177.417 51.2213 176.89 50.0009 176.091 49.0044C175.288 47.9817 174.295 47.2632 173.112 46.849C171.929 46.4349 170.681 46.3436 169.367 46.5751C168.028 46.8113 166.873 47.3263 165.903 48.1202C164.959 48.9094 164.272 49.9242 163.84 51.1646C163.431 52.3741 163.353 53.701 163.608 55.1454C163.863 56.5898 164.392 57.8233 165.195 58.8461C166.02 59.8379 167.013 60.5564 168.174 61.0014C169.358 61.4156 170.619 61.5046 171.958 61.2684ZM194.296 38.7677C197.185 38.2583 199.516 38.5784 201.289 39.728C203.089 40.8729 204.236 42.8503 204.731 45.6603L206.954 58.2658L203.369 58.8979L202.883 56.1405C202.424 57.2233 201.65 58.1315 200.561 58.8651C199.494 59.5678 198.159 60.0604 196.557 60.3429C194.22 60.755 192.242 60.5215 190.625 59.6423C189.034 58.7584 188.077 57.3974 187.752 55.5591C187.428 53.7208 187.839 52.132 188.983 50.7929C190.124 49.4275 192.151 48.4878 195.066 47.9738L201.054 46.918L200.922 46.1695C200.635 44.5413 199.942 43.3773 198.844 42.6773C197.746 41.9774 196.278 41.7895 194.439 42.1137C193.205 42.3313 192.034 42.7544 190.926 43.383C189.814 43.9853 188.911 44.6996 188.217 45.5259L186.141 42.9675C187.065 41.911 188.236 41.0276 189.655 40.3172C191.068 39.5805 192.615 39.064 194.296 38.7677ZM196.673 57.3167C198.118 57.062 199.309 56.5269 200.249 55.7114C201.183 54.8697 201.783 53.8162 202.047 52.5511L201.533 49.6361L195.703 50.6641C192.499 51.229 191.087 52.5882 191.467 54.7416C191.652 55.7921 192.205 56.5476 193.126 57.008C194.046 57.4685 195.229 57.5714 196.673 57.3167ZM236.353 31.3518C238.98 30.8888 241.189 31.2845 242.98 32.5391C244.798 33.7891 245.971 35.911 246.499 38.9048L248.618 50.9194L244.836 51.5863L242.794 40.0049C242.437 37.9828 241.696 36.543 240.57 35.6855C239.47 34.8233 238.054 34.5451 236.321 34.8507C234.403 35.1887 232.987 36.0613 232.071 37.4685C231.15 38.8494 230.886 40.6559 231.28 42.8881L233.176 53.6422L229.394 54.3091L227.352 42.7277C226.996 40.7056 226.254 39.2658 225.128 38.4083C224.029 37.5461 222.612 37.2679 220.879 37.5735C218.962 37.9115 217.545 38.7841 216.629 40.1913C215.708 41.5722 215.444 43.3787 215.838 45.6109L217.734 56.365L213.952 57.0319L210.271 36.1539L213.895 35.5149L214.444 38.6269C215.016 37.4159 215.87 36.4258 217.007 35.6567C218.14 34.8613 219.494 34.3247 221.069 34.0468C222.697 33.7597 224.2 33.8333 225.576 34.2676C226.952 34.7019 228.093 35.4891 228.998 36.6292C229.573 35.2823 230.496 34.1447 231.768 33.2165C233.065 32.2836 234.594 31.6621 236.353 31.3518Z" fill="white"/>
<defs>
<linearGradient id="paint0_linear_2_104" x1="174.934" y1="28.0118" x2="209.081" y2="21.0297" gradientUnits="userSpaceOnUse">
<stop offset="0.13" stop-color="#F6F6F6"/>
<stop offset="0.34" stop-color="#DFE0E0"/>
<stop offset="0.54" stop-color="#C4C5C6"/>
<stop offset="0.57" stop-color="#C1C2C3"/>
<stop offset="0.69" stop-color="#BEBFC0"/>
<stop offset="0.91" stop-color="white"/>
<stop offset="1" stop-color="white"/>
</linearGradient>
</defs>
</svg>
