<svg width="28" height="28" viewBox="0 0 28 28" fill="none" xmlns="http://www.w3.org/2000/svg">
<path d="M3.87333 1.35654L3.89783 1.34837L7.06533 0.298192C8.15943 -0.0651045 9.33642 -0.097173 10.4487 0.20601L16.954 2.09516C17.7505 2.30629 18.5958 2.23199 19.3433 1.88513L19.9267 1.61442C20.8126 1.24589 21.7758 1.10165 22.7309 1.19447C23.6859 1.28729 24.6033 1.61432 25.4018 2.14656C26.2002 2.6788 26.8551 3.39982 27.3083 4.24573C27.7615 5.09163 27.9991 6.03629 28 6.996V21.0859C27.9975 22.3477 27.5872 23.5748 26.8303 24.5842C26.0734 25.5936 25.0104 26.3312 23.8 26.6868L20.4528 27.737C19.8881 27.9126 19.3 28.0011 18.7087 27.9996C18.1816 28.0063 17.6563 27.9351 17.15 27.7884L10.3833 25.9214C9.76497 25.7536 9.11243 25.7589 8.49684 25.9366L5.76333 26.7254C5.07708 26.8913 4.36212 26.8993 3.67231 26.7489C2.98249 26.5984 2.3358 26.2934 1.78094 25.8567C1.22608 25.42 0.777521 24.8632 0.469032 24.228C0.160545 23.5928 0.000173569 22.8959 0 22.1897V6.85131C0.00176811 5.64808 0.374701 4.47471 1.06791 3.49131C1.76111 2.50792 2.74082 1.76242 3.87333 1.35654ZM23.128 24.4511C23.858 24.24 24.4999 23.798 24.9576 23.1913C25.4152 22.5846 25.664 21.8459 25.6667 21.0859V6.996C25.6723 6.41803 25.5325 5.84791 25.2602 5.33814C24.9878 4.82836 24.5916 4.39531 24.108 4.07884C23.5326 3.69709 22.8572 3.4941 22.1667 3.4954C21.7214 3.49553 21.2805 3.58356 20.8693 3.75445C20.8693 3.75445 20.0002 4.12668 19.8345 4.18619V25.4815L23.128 24.4511ZM17.5 25.464V4.52108C17.1037 4.50005 16.7106 4.43946 16.3263 4.34021L10.5 2.64709V23.5655L17.5 25.464ZM2.33333 22.1897C2.33308 22.5393 2.41133 22.8844 2.56231 23.1996C2.71328 23.5148 2.93311 23.7921 3.20558 24.011C3.47805 24.2298 3.7962 24.3847 4.13652 24.4641C4.47684 24.5435 4.83066 24.5455 5.17183 24.4698L8.16667 23.6262V2.41605L4.64567 3.55841C3.96898 3.80363 3.38411 4.25116 2.97044 4.84024C2.55677 5.42933 2.33434 6.13145 2.33333 6.85131V22.1897Z" fill="#6D6D6D"/>
</svg>
