<svg width="29" height="29" viewBox="0 0 29 29" fill="none" xmlns="http://www.w3.org/2000/svg">
<path d="M27.6955 26.0458L20.7317 19.082C22.6294 16.761 23.5625 13.7995 23.3378 10.8098C23.1132 7.82021 21.7481 5.0313 19.5249 3.01995C17.3016 1.00861 14.3904 -0.0712824 11.3933 0.00365469C8.39615 0.0785918 5.5425 1.30262 3.42256 3.42256C1.30262 5.5425 0.0785918 8.39615 0.00365469 11.3933C-0.0712824 14.3904 1.00861 17.3016 3.01995 19.5249C5.0313 21.7481 7.82021 23.1132 10.8098 23.3378C13.7995 23.5625 16.761 22.6294 19.082 20.7317L26.0458 27.6955C26.2659 27.908 26.5606 28.0256 26.8665 28.023C27.1724 28.0203 27.465 27.8976 27.6813 27.6813C27.8976 27.465 28.0203 27.1724 28.023 26.8665C28.0256 26.5606 27.908 26.2659 27.6955 26.0458ZM11.704 21.0373C9.85805 21.0373 8.05355 20.49 6.51869 19.4644C4.98383 18.4388 3.78755 16.9812 3.08113 15.2757C2.37472 13.5703 2.18989 11.6937 2.55001 9.88317C2.91014 8.07268 3.79906 6.40964 5.10435 5.10435C6.40964 3.79906 8.07268 2.91014 9.88317 2.55001C11.6937 2.18989 13.5703 2.37472 15.2757 3.08113C16.9812 3.78755 18.4388 4.98383 19.4644 6.51869C20.49 8.05355 21.0373 9.85805 21.0373 11.704C21.0346 14.1785 20.0503 16.5509 18.3006 18.3006C16.5509 20.0503 14.1785 21.0346 11.704 21.0373Z" fill="#6D6D6D"/>
</svg>
