<svg width="751" height="497" viewBox="0 0 751 497" fill="none" xmlns="http://www.w3.org/2000/svg">
<g clip-path="url(#clip0_266_199)">
<path d="M620.136 206.925C616.596 180.575 601.648 155.5 581.587 139.35C552.479 115.975 514.716 108.75 478.527 109.175C414.409 110.45 392.775 43.725 343.211 13.55C308.596 -7.70003 264.146 -1.75002 229.531 19.075C194.915 40.325 168.953 74.325 147.318 110.45C137.878 126.175 128.831 143.175 115.456 155.075C103.262 166.125 88.3145 172.5 74.9403 181.425C35.211 207.775 9.24926 256.225 7.28246 306.375C5.70903 356.525 28.1305 407.1 65.893 436.425C96.1817 460.225 141.025 477.225 176.034 489.975C215.37 504.425 259.819 492.1 299.942 492.525C385.301 492.95 470.266 493.375 555.625 493.375C572.54 493.375 594.568 497.2 610.302 492.525C603.615 494.65 619.743 451.3 620.136 447.9C622.497 430.9 618.563 414.325 609.909 399.45C598.108 379.05 581.587 359.5 580.014 335.275C578.047 300.85 607.942 274.5 617.383 241.775C621.316 231.15 621.71 218.825 620.136 206.925Z" fill="#EEF4FC"/>
<path d="M473.413 146.15C473.413 135.95 465.546 127.45 456.105 127.45C453.352 127.45 450.992 128.3 449.025 129.15C445.878 121.925 439.584 116.825 432.111 115.125C432.504 113.425 433.291 111.725 433.291 109.6C433.291 92.5999 420.703 78.5749 404.575 78.5749C397.102 78.5749 390.414 81.9749 385.301 87.0749C383.334 57.7499 360.913 34.3749 333.377 34.3749C309.382 34.3749 289.321 52.225 283.027 76.025C280.667 75.6 278.307 75.1749 275.947 75.1749C259.426 75.1749 245.265 87.4999 241.331 104.075C237.398 102.375 233.464 101.525 229.137 101.525C211.043 101.525 196.488 117.25 196.488 136.8C196.488 143.6 198.455 149.125 201.602 154.65H471.053C472.233 152.1 473.413 149.125 473.413 146.15Z" fill="white"/>
<path d="M473.413 155.925H275.16C274.767 155.925 274.373 155.5 274.373 155.075C274.373 154.65 274.767 154.225 275.16 154.225H473.413C473.807 154.225 474.2 154.65 474.2 155.075C474.2 155.5 473.807 155.925 473.413 155.925Z" fill="#002DAA"/>
<path d="M292.468 155.925H202.389C201.995 155.925 201.602 155.5 201.602 155.075C201.602 154.65 201.995 154.225 202.389 154.225H292.468C292.861 154.225 293.255 154.65 293.255 155.075C293.255 155.5 292.861 155.925 292.468 155.925Z" fill="#002DAA"/>
<path d="M270.833 83.2499C288.141 83.2499 301.909 98.5499 301.909 116.825C301.909 120.65 301.122 124.05 299.942 127.875C303.089 122.35 305.055 115.975 305.055 109.175C305.055 90.4749 290.894 75.5999 273.98 75.5999C260.212 75.5999 248.805 85.3749 244.478 98.5499C250.378 89.1999 259.819 83.2499 270.833 83.2499Z" fill="#D1E1F2"/>
<path d="M425.423 119.8C417.556 125.75 406.936 123.625 401.429 115.55C400.248 113.85 399.462 112.15 399.068 110.025C399.068 113.425 400.248 117.25 402.215 120.225C407.722 128.725 418.343 130.425 426.21 124.475C432.111 119.8 434.471 111.725 432.504 104.075C432.504 110.025 430.144 115.975 425.423 119.8Z" fill="#D1E1F2"/>
<path d="M433.291 110.875C432.897 110.875 432.504 110.45 432.504 110.025C432.504 93.45 419.916 79.8499 404.575 79.8499C397.888 79.8499 391.201 82.8249 385.694 87.9249L384.514 89.2V87.4999C382.547 58.1749 360.126 35.65 333.377 35.65C310.563 35.65 290.108 52.65 283.814 76.45C283.814 76.875 283.421 77.2999 283.027 76.8749C282.634 76.8749 282.241 76.45 282.634 76.025C288.928 51.375 310.169 33.95 333.771 33.95C360.913 33.95 383.727 56.4749 386.481 85.7999C391.988 81.1249 398.282 78.575 404.969 78.575C421.097 78.575 434.471 92.6 434.471 110.45C434.077 110.45 433.684 110.875 433.291 110.875Z" fill="#002DAA"/>
<path d="M216.156 224.35C216.156 216.275 210.256 209.475 202.389 209.475C200.422 209.475 198.455 209.9 196.488 211.175C193.735 205.65 189.014 201.4 183.114 200.125C183.507 198.85 183.901 197.15 183.901 195.875C183.901 182.275 173.673 171.225 161.086 171.225C155.186 171.225 149.679 173.775 145.745 178.025C144.171 154.65 126.47 136.375 104.442 136.375C85.1676 136.375 69.4332 150.4 64.7129 169.525C62.7461 169.1 61.1727 169.1 59.2059 169.1C45.8317 169.1 34.8176 178.875 31.6707 192.05C28.5238 190.775 25.377 189.925 22.2301 189.925C8.06916 189.925 -3.73163 202.675 -3.73163 217.975C-3.73163 223.075 -2.15819 227.75 0.201965 232H214.189C215.37 229.45 216.156 227.325 216.156 224.35Z" fill="white"/>
<path d="M216.156 232.425H58.8125C58.4192 232.425 58.0258 232 58.0258 231.575C58.0258 231.15 58.4192 230.725 58.8125 230.725H216.156C216.55 230.725 216.943 231.15 216.943 231.575C216.943 232 216.55 232.425 216.156 232.425Z" fill="#002DAA"/>
<path d="M72.5801 232.425H0.988687C0.595328 232.425 0.201965 232 0.201965 231.575C0.201965 231.15 0.595328 230.725 0.988687 230.725H72.5801C72.9735 230.725 73.3668 231.15 73.3668 231.575C73.3668 232 72.9735 232.425 72.5801 232.425Z" fill="#002DAA"/>
<path d="M55.2723 174.625C69.0399 174.625 80.054 186.525 80.054 201.4C80.054 204.375 79.6606 207.35 78.4805 209.9C81.234 205.65 82.8075 200.55 82.8075 195.025C82.8075 180.15 71.7934 168.25 58.0258 168.25C47.4051 168.25 37.9645 175.9 34.8176 186.525C39.1446 179.725 46.6184 174.625 55.2723 174.625Z" fill="#D1E1F2"/>
<path d="M178 203.95C172.1 208.625 163.446 206.925 159.119 200.55C158.332 199.275 157.546 197.575 157.152 196.3C157.152 199.275 157.939 201.825 159.512 204.375C163.839 210.75 172.493 212.45 178.394 207.775C183.114 203.95 185.081 197.575 183.507 191.625C183.901 196.3 181.934 200.975 178 203.95Z" fill="#D1E1F2"/>
<path d="M184.294 196.725C183.901 196.725 183.507 196.3 183.507 195.875C183.507 182.7 173.673 172.075 161.479 172.075C155.972 172.075 150.859 174.2 146.925 178.45L145.745 179.725V178.025C144.172 155.075 126.47 136.8 105.229 136.8C87.1344 136.8 71.0067 149.975 65.893 169.1C65.893 169.525 65.4996 169.95 65.1063 169.525C64.7129 169.525 64.3196 169.1 64.7129 168.675C69.8266 148.7 86.3477 135.1 105.229 135.1C126.864 135.1 144.958 152.95 147.318 175.9C151.645 172.075 156.759 170.375 161.873 170.375C174.854 170.375 185.474 181.85 185.474 195.875C185.081 196.3 184.688 196.725 184.294 196.725Z" fill="#002DAA"/>
<path d="M677.173 282.575C677.173 275.35 671.666 269.4 664.979 269.4C663.013 269.4 661.439 269.825 659.866 270.675C657.505 265.575 653.179 262.175 648.065 260.9C648.458 259.625 648.852 258.35 648.852 257.075C648.852 245.175 639.804 235.4 628.79 235.4C623.677 235.4 618.956 237.525 615.416 241.35C614.236 220.525 598.108 204.375 578.834 204.375C561.919 204.375 547.758 216.7 543.431 233.7C541.858 233.275 540.284 233.275 538.318 233.275C526.517 233.275 516.683 241.775 513.929 253.675C511.176 252.4 508.422 251.975 505.275 251.975C492.688 251.975 482.461 263.025 482.461 276.625C482.461 281.3 484.034 285.55 486.001 288.95H675.207C676.387 287.25 677.173 285.125 677.173 282.575Z" fill="white"/>
<path d="M677.173 289.8H537.924C537.531 289.8 537.138 289.375 537.138 288.95C537.138 288.525 537.531 288.1 537.924 288.1H677.173C677.567 288.1 677.96 288.525 677.96 288.95C677.96 289.375 677.567 289.8 677.173 289.8Z" fill="#002DAA"/>
<path d="M550.118 289.8H486.788C486.394 289.8 486.001 289.375 486.001 288.95C486.001 288.525 486.394 288.1 486.788 288.1H550.118C550.512 288.1 550.905 288.525 550.905 288.95C550.905 289.375 550.512 289.8 550.118 289.8Z" fill="#002DAA"/>
<path d="M534.777 238.8C546.971 238.8 556.806 249.425 556.806 262.6C556.806 265.15 556.412 267.7 555.625 270.25C557.986 266.425 559.166 262.175 559.166 257.075C559.166 243.9 549.332 233.275 537.138 233.275C527.697 233.275 519.436 240.075 516.683 249.425C520.616 243.05 527.304 238.8 534.777 238.8Z" fill="#D1E1F2"/>
<path d="M643.345 264.3C637.838 268.55 630.364 266.85 626.43 261.325C625.643 260.05 625.25 258.775 624.857 257.5C624.857 260.05 625.643 262.6 627.217 264.725C631.15 270.675 638.624 271.95 644.131 267.7C648.458 264.3 650.032 258.775 648.852 253.675C648.458 257.5 646.491 261.75 643.345 264.3Z" fill="#D1E1F2"/>
<path d="M648.852 258.35C648.458 258.35 648.065 257.925 648.065 257.5C648.065 246.025 639.411 236.675 628.79 236.675C624.07 236.675 619.35 238.8 615.809 242.2L614.629 243.475V241.775C613.449 221.375 597.715 205.65 578.834 205.65C562.706 205.65 548.545 217.55 544.218 234.125C544.218 234.55 543.825 234.975 543.431 234.55C543.038 234.55 542.645 234.125 543.038 233.7C547.365 216.275 562.313 203.95 579.227 203.95C598.108 203.95 614.236 219.675 616.596 240.075C620.136 236.675 624.857 234.975 629.577 234.975C640.984 234.975 650.425 245.175 650.425 257.5C649.638 257.925 649.245 258.35 648.852 258.35Z" fill="#002DAA"/>
<path d="M570.573 335.275C570.573 335.275 570.18 335.275 569.786 335.275C568.606 335.7 567.033 336.125 566.246 337.4C566.639 335.275 566.246 332.725 565.459 330.6V330.175C565.459 330.175 565.459 330.175 565.066 330.175C563.886 330.175 563.099 330.6 562.312 331.45C561.526 331.875 561.132 333.15 561.132 334C561.526 332.725 561.132 331.45 561.132 330.175C561.132 329.75 560.739 329.325 560.346 328.9C559.952 328.475 559.952 327.625 559.559 327.2H559.166C558.772 327.2 558.379 327.625 558.379 328.05C557.592 328.9 557.199 329.325 556.412 330.175C555.625 331.025 555.625 331.45 555.232 330.6C554.839 329.325 554.445 328.05 553.265 326.775C553.265 326.775 552.478 328.05 552.085 328.05C550.512 331.875 548.938 336.125 549.332 340.375C549.725 345.05 552.872 352.7 552.872 352.7C553.659 352.7 554.839 352.275 555.625 352.275C556.019 352.275 556.412 352.275 557.199 351.85C557.592 351.85 558.379 351.425 558.772 351C560.739 349.725 562.706 348.025 564.673 346.325C566.639 344.2 567.82 342.075 569 339.95C569.393 339.1 570.966 335.7 570.573 335.275Z" fill="#1067DB"/>
<path d="M552.479 342.925C552.085 339.1 553.265 335.275 554.839 332.3C554.839 332.3 555.232 331.45 555.625 331.45L555.232 331.025L554.445 332.3C552.872 335.7 551.692 339.525 552.085 342.925C552.479 346.75 555.232 353.55 555.232 353.55H555.625C554.839 351.425 552.872 345.9 552.479 342.925Z" fill="#002DAA"/>
<path d="M561.919 345.9C563.886 343.775 565.066 340.375 565.853 337.4V336.55H566.246V337.825C565.459 340.8 564.279 344.2 562.313 346.325C560.346 348.875 554.839 351.425 554.839 351.425C554.839 351.425 554.839 351.425 554.445 351C556.019 350.575 560.346 348.025 561.919 345.9Z" fill="#002DAA"/>
<path d="M560.346 334C558.379 339.525 556.412 345.475 554.052 351C554.052 351.425 554.445 351.85 554.445 351.425C556.805 345.9 558.772 339.95 560.739 334.425C561.526 333.575 560.739 333.575 560.346 334Z" fill="#002DAA"/>
<path d="M558.379 351.425L557.986 351C557.592 351 557.199 351.425 556.806 351.85C556.806 351 556.805 350.15 556.412 349.3C556.019 349.3 555.625 349.3 555.232 349.725C554.839 350.15 554.839 350.15 554.839 350.575C554.839 350.15 554.839 349.725 554.839 349.3C554.839 349.3 554.839 348.875 554.445 348.875C554.445 348.875 554.445 348.45 554.052 348.45C554.052 348.45 553.659 348.45 553.659 348.875C553.265 349.3 553.265 349.3 552.872 349.725C552.479 350.15 552.479 350.15 552.479 349.725C552.479 349.3 552.085 348.45 551.692 348.025C551.692 348.025 551.298 348.45 551.298 348.875C551.692 350.15 550.118 351.85 550.118 353.125C550.118 354.825 551.298 357.375 551.298 357.375C551.692 357.375 552.085 357.375 552.479 357.375H552.872C553.265 357.375 553.265 357.375 553.265 356.95C554.052 356.525 554.445 356.1 554.839 355.675C555.625 354.825 555.625 353.975 556.019 353.125C557.199 352.275 557.986 351.425 558.379 351.425Z" fill="#002DAA"/>
<path d="M543.038 383.3C546.578 373.95 548.545 363.75 553.659 355.25C554.052 354.4 552.872 353.975 552.479 354.4C546.971 363.325 545.005 373.525 541.464 383.3C540.678 385.85 539.498 388.4 538.318 390.95L539.104 392.225C540.678 389.25 542.251 386.275 543.038 383.3Z" fill="#002DAA"/>
<path d="M594.568 475.525C597.715 473.825 600.862 472.125 603.615 470C619.35 460.225 670.486 424.525 653.965 400.3C649.638 393.925 641.378 391.8 633.904 391.375C626.823 391.375 620.136 392.225 613.449 394.775C612.269 395.2 610.696 395.625 609.122 395.2C606.762 394.35 606.369 391.375 605.975 388.825C605.189 382.025 605.189 374.8 602.435 368.85C596.141 355.675 578.44 353.975 566.246 360.35C559.559 364.175 552.085 369.7 545.005 366.3C541.465 364.6 539.104 360.775 536.351 357.8C529.27 350.575 518.65 349.3 509.209 348.45C501.735 347.6 493.868 347.175 487.181 350.575C483.247 352.7 479.707 356.1 476.954 359.925C456.499 387.55 463.579 428.775 480.1 456.825C492.295 477.65 509.209 495.5 532.811 493.375C554.445 492.1 575.293 485.725 594.568 475.525Z" fill="#B3CDFA"/>
<path d="M637.051 408.375C600.862 430.9 569.393 461.075 535.171 487C534.777 487 533.991 487 534.384 486.575C568.606 460.65 600.075 430.475 636.264 407.95C636.657 407.95 637.444 408.375 637.051 408.375Z" fill="#002DAA"/>
<path d="M625.643 405.4C623.283 411.35 620.136 416.875 616.596 422.4C616.203 422.825 615.416 422.4 615.809 421.975C619.35 416.875 622.496 410.925 624.857 405.4C624.857 404.975 625.643 404.975 625.643 405.4Z" fill="#002DAA"/>
<path d="M611.089 409.65C608.729 418.15 605.189 426.65 600.862 433.875C600.862 434.3 599.682 433.875 600.075 433.45C604.795 425.8 607.942 417.725 610.302 409.225L611.089 409.65Z" fill="#002DAA"/>
<path d="M596.141 419.85C593.388 429.2 589.848 438.125 585.521 446.625C585.521 447.05 584.734 446.625 584.734 446.2C589.061 437.7 592.601 428.775 595.355 419.425C595.355 419.425 596.535 419.85 596.141 419.85Z" fill="#002DAA"/>
<path d="M580.8 428.35C577.654 440.25 572.933 451.3 566.639 461.925C566.246 462.35 565.459 461.925 565.853 461.5C572.146 451.3 576.867 440.25 580.014 428.35C580.014 427.925 580.8 427.925 580.8 428.35Z" fill="#002DAA"/>
<path d="M568.606 437.275C561.526 451.3 554.445 464.9 546.578 478.5C546.578 478.925 545.398 478.5 545.791 478.075C553.659 464.475 560.739 450.875 567.82 437.275C567.82 436.425 568.606 436.85 568.606 437.275Z" fill="#002DAA"/>
<path d="M632.724 421.125C626.43 421.55 619.743 422.825 613.843 424.525C613.449 424.525 612.662 424.1 613.056 424.1C619.35 422.4 625.643 421.125 632.33 420.7C632.33 420.7 633.117 421.125 632.724 421.125Z" fill="#002DAA"/>
<path d="M612.269 435.15C605.582 436.425 598.895 438.55 592.601 441.1C592.208 441.1 591.421 440.675 591.814 440.675C598.108 438.125 604.795 436 611.482 434.725C611.876 434.725 612.662 435.15 612.269 435.15Z" fill="#002DAA"/>
<path d="M591.421 451.725C585.127 450.875 580.014 454.7 574.113 455.975C573.72 455.975 572.933 455.55 573.72 455.55C579.62 454.275 585.127 450.45 591.421 451.3C591.421 451.3 591.814 451.725 591.421 451.725Z" fill="#002DAA"/>
<path d="M581.194 462.775C573.72 462.775 567.426 466.6 559.952 467.45C559.559 467.45 558.772 467.025 559.559 467.025C563.886 466.6 567.426 464.9 571.36 463.625C574.507 462.775 577.654 462.35 580.8 462.35C580.8 462.35 581.587 462.775 581.194 462.775Z" fill="#002DAA"/>
<path d="M566.639 474.25C559.952 475.525 552.478 475.95 546.185 478.5C545.791 478.5 545.005 478.075 545.398 478.075C551.692 475.1 559.166 474.675 565.853 473.4C566.246 473.825 567.033 474.25 566.639 474.25Z" fill="#002DAA"/>
<path d="M585.127 368.425C558.379 402.85 537.924 442.8 513.929 479.775C513.929 480.2 512.749 479.775 513.143 479.775C537.138 442.8 557.199 403.275 584.341 368.425H585.127Z" fill="#002DAA"/>
<path d="M573.327 370.125C572.933 376.5 571.753 383.3 570.18 389.25C570.18 389.675 569 389.675 569.393 389.25C570.966 382.875 572.147 376.5 572.54 370.125C572.147 369.7 573.327 369.7 573.327 370.125Z" fill="#002DAA"/>
<path d="M560.739 379.475C561.132 388.4 560.739 397.325 558.772 406.25C558.772 406.675 557.986 406.675 557.986 406.25C559.952 397.325 560.739 388.825 559.952 379.475C559.952 379.05 560.739 379.05 560.739 379.475Z" fill="#002DAA"/>
<path d="M550.118 394.35C550.512 404.125 549.725 413.9 548.545 423.25C548.545 423.675 547.758 423.675 547.758 423.25C548.938 413.475 549.725 404.125 549.332 394.35C549.332 394.35 550.118 393.925 550.118 394.35Z" fill="#002DAA"/>
<path d="M538.318 407.95C539.104 420.275 538.318 432.6 535.564 444.5C535.564 444.925 534.384 444.925 534.777 444.5C537.531 432.6 538.318 420.275 537.531 407.95C537.531 407.525 538.318 407.525 538.318 407.95Z" fill="#002DAA"/>
<path d="M529.664 420.7C527.304 436.425 524.943 452.15 521.797 467.45C521.797 467.875 521.01 467.875 521.01 467.45C524.157 452.15 526.91 436.425 528.877 420.7C528.484 420.275 529.664 420.275 529.664 420.7Z" fill="#002DAA"/>
<path d="M584.734 382.025C578.834 385 573.327 388.4 567.82 392.225C567.82 392.225 566.639 392.225 567.033 392.225C572.54 387.975 578.047 384.575 583.947 382.025C584.341 381.6 585.127 381.6 584.734 382.025Z" fill="#002DAA"/>
<path d="M569.786 402.85C563.886 406.675 558.379 410.925 553.265 415.6C552.872 415.6 552.085 415.6 552.479 415.6C557.592 410.925 563.493 406.675 569.393 402.85C569.393 402.425 570.18 402.85 569.786 402.85Z" fill="#002DAA"/>
<path d="M555.625 426.225C549.725 427.925 545.791 433.025 540.678 436.425C540.284 436.425 539.498 436.425 539.891 436C545.005 432.6 548.938 427.075 555.625 426.225C556.019 425.8 555.625 425.375 555.625 426.225Z" fill="#002DAA"/>
<path d="M549.332 440.25C542.251 443.225 537.531 449.175 530.844 452.575C530.844 452.575 529.664 452.575 530.057 452.575C533.991 450.45 536.744 447.475 539.891 444.925C542.645 442.8 545.398 441.525 548.545 440.25C548.938 439.825 549.725 439.825 549.332 440.25Z" fill="#002DAA"/>
<path d="M539.104 455.975C533.204 459.375 526.517 462.775 521.403 467.45C521.403 467.45 520.223 467.45 520.616 467.45C525.73 462.35 532.417 459.375 538.318 455.55C538.711 455.55 539.891 455.975 539.104 455.975Z" fill="#002DAA"/>
<path d="M508.422 346.325C500.948 390.95 501.735 436 497.802 481.05C497.802 481.475 497.015 481.9 497.015 481.475C500.948 436.425 500.162 391.375 507.636 346.75C507.636 346.325 508.422 346.325 508.422 346.325Z" fill="#002DAA"/>
<path d="M498.982 353.975C501.735 359.925 503.702 366.3 504.882 372.675C504.882 373.1 504.095 373.525 504.095 373.1C502.522 366.725 500.555 360.775 498.195 354.825C497.802 353.975 498.588 353.55 498.982 353.975Z" fill="#002DAA"/>
<path d="M492.295 368.85C497.015 376.5 500.555 384.575 502.915 393.075C502.915 393.5 502.129 393.925 502.129 393.5C499.768 385 496.228 376.925 491.901 369.275C491.508 368.85 492.295 368.425 492.295 368.85Z" fill="#002DAA"/>
<path d="M489.934 387.55C494.655 396.05 498.588 404.55 501.735 413.475C501.735 413.9 500.948 414.325 500.948 413.9C497.802 404.975 493.868 396.05 489.148 387.975C489.148 387.55 489.934 387.125 489.934 387.55Z" fill="#002DAA"/>
<path d="M486.001 405.825C492.295 416.025 497.408 427.075 500.555 439.4C500.555 439.825 499.768 440.25 499.768 439.825C496.622 427.925 491.901 416.875 485.607 406.675C485.214 405.825 486.001 405.4 486.001 405.825Z" fill="#002DAA"/>
<path d="M484.427 421.125C489.934 436 494.655 450.875 498.982 466.175C498.982 466.6 498.195 467.025 498.195 466.6C493.868 451.725 488.754 436.425 483.641 421.975C483.247 421.55 484.034 421.125 484.427 421.125Z" fill="#002DAA"/>
<path d="M514.716 358.225C510.782 363.75 507.636 369.7 504.882 376.075C504.882 376.5 504.095 376.5 504.095 376.5C506.849 370.125 509.996 364.175 513.929 358.225C513.929 358.225 514.716 357.8 514.716 358.225Z" fill="#002DAA"/>
<path d="M511.176 384.575C507.636 390.95 504.882 397.75 502.522 404.55C502.522 404.975 501.735 405.4 501.735 404.975C504.095 397.75 506.849 391.375 510.389 385C510.389 384.15 511.569 383.725 511.176 384.575Z" fill="#002DAA"/>
<path d="M509.209 412.2C504.489 416.875 503.702 423.675 500.948 429.2C500.948 429.625 500.162 429.625 500.162 429.2C502.915 423.25 504.095 416.45 508.816 411.775C509.209 411.775 509.602 411.775 509.209 412.2Z" fill="#002DAA"/>
<path d="M510.389 427.5C505.275 433.875 504.095 441.525 499.768 448.325C499.768 448.325 498.982 448.75 498.982 448.325C501.342 444.5 502.522 440.25 504.095 436.425C505.275 433.025 507.242 430.475 509.209 427.925C509.996 427.5 510.782 427.075 510.389 427.5Z" fill="#002DAA"/>
<path d="M509.209 447.05C505.669 453.425 501.342 459.8 498.982 466.6C498.982 467.025 498.195 467.45 498.195 467.025C500.162 459.8 504.882 453.425 508.422 447.475C508.422 446.625 509.209 446.625 509.209 447.05Z" fill="#002DAA"/>
<path d="M734.604 495.5C733.424 490.4 731.457 487 731.457 487C727.13 488.7 723.59 490.825 720.443 493.375C720.05 493.375 720.05 492.95 719.656 492.95C722.803 472.975 709.429 464.475 709.429 464.475C704.315 469.15 701.168 474.675 699.595 479.775C693.695 463.2 679.927 459.375 679.927 459.375C677.567 463.625 675.6 468.3 674.813 472.55C674.027 472.125 672.846 471.7 672.06 471.275C681.894 454.275 672.847 440.675 672.847 440.675C664.193 443.65 658.686 449.175 655.145 455.125C650.032 439.4 637.051 437.275 637.051 437.275C633.904 443.65 633.117 449.6 633.511 455.125C631.937 454.7 630.364 453.85 628.397 453.425C625.25 444.5 618.956 440.25 618.956 440.25C616.203 442.8 614.236 445.775 612.663 448.325C611.876 448.325 611.089 447.9 610.302 447.9C606.369 429.2 591.421 426.225 591.421 426.225C588.274 432.6 587.094 438.975 587.488 444.5C586.307 444.5 585.521 444.5 584.341 444.5C584.341 432.175 576.867 425.375 576.867 425.375C567.82 431.325 563.493 439.825 561.919 447.9C561.526 447.9 561.132 448.325 560.739 448.325C559.559 444.925 558.379 443.225 558.379 443.225C551.692 445.775 546.578 449.6 543.038 454.275C538.318 444.075 529.664 441.1 529.664 441.1C523.37 450.875 522.583 460.65 524.157 469.15C524.157 469.15 523.763 469.15 523.763 469.575C515.503 463.625 507.242 465.325 507.242 465.325C506.849 470.425 506.849 474.675 508.029 478.925C506.849 479.35 505.275 480.2 504.095 480.625C499.375 472.125 491.901 469.575 491.901 469.575C489.541 472.975 487.968 476.375 487.181 479.775C480.887 476.375 475.38 476.8 475.38 476.8C474.593 479.775 474.593 482.75 474.593 485.3C469.873 485.3 464.759 484.875 460.039 484.45C455.319 476.375 447.845 473.825 447.845 473.825C445.878 476.8 444.305 480.2 443.125 483.175C436.831 475.1 428.964 472.975 428.964 472.975C426.604 477.225 425.03 481.05 424.243 484.875C423.063 485.3 422.277 485.3 421.097 485.725C412.443 479.35 403.789 481.05 403.789 481.05C403.395 485.725 403.395 489.975 404.182 493.8C403.395 494.225 402.609 495.075 402.215 495.5H734.604Z" fill="#1067DB"/>
<path d="M13.5762 409.65C49.7652 450.875 100.509 475.525 153.219 476.8C154.792 476.8 154.792 474.675 153.219 474.675C100.902 473.4 50.9453 449.6 15.1496 408.375C14.3629 406.675 12.7895 408.375 13.5762 409.65Z" fill="#150D9C"/>
<path d="M19.0832 414.325C19.0832 414.325 0.201965 412.2 0.201965 395.2C0.595325 395.2 14.7563 390.1 19.0832 414.325Z" fill="#150D9C"/>
<path d="M33.6375 428.35C33.6375 428.35 18.2965 440.25 7.67578 427.925C7.67578 427.5 15.1496 413.9 33.6375 428.35Z" fill="#150D9C"/>
<path d="M54.4856 444.5C54.4856 444.5 41.1114 458.95 28.9172 448.325C28.9172 448.325 34.4243 433.025 54.4856 444.5Z" fill="#150D9C"/>
<path d="M77.3004 456.825C77.3004 456.825 67.8598 474.25 53.3055 467.45C53.3055 467.025 54.8789 451.3 77.3004 456.825Z" fill="#150D9C"/>
<path d="M100.902 465.325C100.902 465.325 96.575 485.3 80.8406 482.75C80.8406 482.75 78.0871 467.025 100.902 465.325Z" fill="#150D9C"/>
<path d="M124.504 471.275C124.504 471.275 124.897 491.675 109.163 493.8C108.769 493.8 102.869 479.35 124.504 471.275Z" fill="#150D9C"/>
<path d="M33.6375 428.35C33.6375 428.35 19.4766 415.175 28.1305 401.15C28.1305 400.725 42.2914 405.4 33.6375 428.35Z" fill="#150D9C"/>
<path d="M54.8789 444.5C54.8789 444.5 40.718 431.325 49.3719 417.3C49.3719 417.3 63.5328 421.55 54.8789 444.5Z" fill="#150D9C"/>
<path d="M77.3004 456.825C77.3004 456.825 63.1395 443.65 71.7934 429.625C71.7934 429.625 85.9543 433.875 77.3004 456.825Z" fill="#150D9C"/>
<path d="M100.902 467.025C100.902 467.025 86.741 453.85 95.3949 439.825C95.3949 439.825 109.949 444.075 100.902 467.025Z" fill="#150D9C"/>
<path d="M124.11 472.125C124.11 472.125 109.949 458.95 118.603 444.925C118.603 444.925 132.764 449.175 124.11 472.125Z" fill="#150D9C"/>
<path d="M81.234 357.8C80.8407 357.8 80.8407 357.8 80.8407 358.225C80.0539 359.075 79.2672 360.35 79.2672 361.625C78.4805 359.925 76.9071 358.225 75.3336 357.375C75.3336 357.375 75.3336 357.375 74.9403 357.375C74.1535 358.225 73.7602 359.075 73.3668 359.925C72.9735 360.775 73.3668 361.625 73.7602 362.475C73.3668 361.625 72.5801 360.35 71.7934 359.925C71.4 359.5 71.0067 359.5 70.6133 359.5C70.22 359.5 69.8266 358.65 69.4332 358.65H69.0399C68.6465 359.075 68.6465 359.5 68.6465 359.925C68.6465 360.775 68.2532 361.625 68.2532 362.475C68.2532 363.325 68.2532 364.175 67.4664 363.325C66.2864 362.475 65.4996 362.05 63.9262 361.625V363.325C64.7129 367.15 65.893 370.975 68.2532 373.95C70.6133 376.925 77.3004 380.75 77.3004 380.75C78.0872 379.9 78.4805 379.475 79.2672 378.625C79.6606 378.2 80.054 377.775 80.054 377.35C80.4473 376.925 80.4473 376.075 80.8407 375.65C81.6274 373.525 82.0207 370.975 82.4141 368.85C82.8075 366.3 82.4141 363.75 82.0207 361.2C82.4141 361.2 81.6274 357.8 81.234 357.8Z" fill="#1067DB"/>
<path d="M72.1868 373.95C70.22 371.4 69.0399 368 68.2532 364.6C68.2532 364.6 68.2532 363.75 68.2532 363.325H67.8598V364.6C68.6465 368 69.8266 371.4 71.7934 373.95C74.1536 376.5 79.6606 379.9 79.6606 379.9C79.6606 379.9 79.6606 379.9 80.054 379.475C78.4805 379.05 73.7602 376.5 72.1868 373.95Z" fill="#002DAA"/>
<path d="M80.4473 370.975C80.8407 368 80.0539 365.025 78.8739 362.475C78.8739 362.475 78.4805 362.05 78.4805 361.625C78.4805 361.625 78.4805 361.2 78.8739 361.2L79.6606 362.05C80.8407 364.6 81.6274 367.575 81.234 370.55C80.8407 373.525 78.4805 379.05 78.4805 379.05H78.0872C78.4805 377.775 80.4473 373.525 80.4473 370.975Z" fill="#002DAA"/>
<path d="M72.9734 362.9C74.5469 368 76.1203 373.525 77.3004 378.625C77.3004 379.05 78.0871 379.05 78.0871 378.625C76.9071 373.1 75.3336 368 73.7602 362.475C73.3668 362.05 72.9734 362.475 72.9734 362.9Z" fill="#002DAA"/>
<path d="M80.8407 376.925H80.4473C80.054 377.35 80.054 377.775 80.054 378.2C79.6606 377.35 79.2672 376.925 78.4805 376.5C78.0872 376.925 78.0872 376.925 78.0872 377.35C78.0872 377.775 78.0872 378.2 78.0872 378.2C78.0872 377.775 77.6938 377.35 77.3005 377.35H76.9071L76.5137 376.925V377.35C76.5137 377.775 76.5137 377.775 76.5137 378.2C76.5137 378.625 76.5137 378.625 76.1204 378.625C75.727 378.2 75.3337 378.2 74.5469 377.775C74.5469 377.775 74.5469 378.2 74.9403 378.2C76.1204 379.05 75.727 381.175 76.5137 382.025C77.3005 383.3 79.6606 384.575 79.6606 384.575C80.054 384.15 80.054 384.15 80.4473 383.725L80.8407 383.3C80.8407 383.3 80.8407 382.875 81.234 382.875C81.6274 382.025 81.6274 381.6 81.6274 380.75C81.6274 379.9 81.234 379.05 81.234 377.775C80.4473 378.2 80.4473 376.925 80.8407 376.925Z" fill="#002DAA"/>
<path d="M86.7411 409.225C84.3809 400.3 80.4473 391.8 79.6606 382.45C79.6606 381.6 78.4805 382.025 78.4805 382.875C79.2672 392.65 83.2008 401.15 85.9544 410.5C86.7411 413.05 87.1344 415.6 87.5278 418.15L88.7079 418.575C87.9211 415.175 87.5278 412.2 86.7411 409.225Z" fill="#002DAA"/>
<path d="M37.5711 376.5C37.1777 376.5 37.1778 376.925 37.1778 377.35C36.7844 378.625 36.391 381.175 37.1778 382.875C35.211 381.175 32.0641 380.325 29.7039 379.475H29.3106C29.3106 379.475 29.3106 379.475 29.3106 379.9C28.9172 381.175 28.5239 382.875 28.9172 384.15C28.9172 385.425 30.0973 386.7 30.884 387.55C29.7039 386.7 28.5239 385.85 26.9504 385.425C26.1637 385.425 25.7703 385.425 25.377 385.425C24.5903 385.425 23.8035 385 23.4102 385.425C23.0168 385.425 23.0168 385.85 23.0168 385.85C23.0168 386.275 23.0168 386.7 23.0168 387.55C23.4102 388.825 23.8035 389.675 23.8035 390.95C24.1969 392.225 24.5903 392.65 23.4102 392.65C21.8367 392.225 19.8699 392.225 18.2965 392.65C18.2965 392.65 19.0832 394.35 19.0832 394.775C21.8367 399.025 25.7703 403.275 30.0973 405.825C34.8176 408.375 45.0449 408.8 45.0449 408.8C45.4383 407.525 45.8317 406.25 46.225 404.975C46.6184 404.55 46.6184 403.7 46.6184 403.275C46.6184 402.425 46.6184 401.575 46.6184 400.725C46.225 397.325 45.8317 393.925 45.0449 390.95C44.2582 387.55 42.6848 384.575 41.1113 381.6C40.3246 380.325 38.3578 376.075 37.5711 376.5Z" fill="#1067DB"/>
<path d="M34.0309 402.85C30.0973 400.725 26.9504 396.9 24.1969 393.5C24.1969 393.5 23.8036 392.65 23.4102 392.225C23.0168 392.225 23.0168 392.225 22.6235 392.225L23.4102 393.925C25.7704 397.75 29.3106 401.575 33.2442 403.275C37.5711 405.4 46.225 405.825 46.225 405.825C46.225 405.825 46.225 405.4 46.6184 405.4C44.6516 405.4 37.5711 404.975 34.0309 402.85Z" fill="#002DAA"/>
<path d="M43.4715 393.5C42.2914 389.675 39.9313 386.275 37.1778 383.725C37.1778 383.725 36.391 383.3 35.9977 382.875C35.9977 382.45 35.9977 382.45 35.9977 382.025L37.1778 382.875C39.9313 385.425 42.2914 388.825 43.4715 392.65C44.6516 396.475 44.2582 404.975 44.2582 404.975H43.8649C44.2582 403.7 44.2582 396.9 43.4715 393.5Z" fill="#002DAA"/>
<path d="M29.7039 387.975C34.4242 393.925 39.1445 399.45 43.4715 405.825C43.8648 406.25 44.6515 405.825 44.2582 405.4C39.9312 399.45 35.2109 393.5 30.4906 387.55C30.0972 386.7 29.3105 387.55 29.7039 387.975Z" fill="#002DAA"/>
<path d="M46.6184 401.15L46.225 401.575C46.225 402 45.8317 402.85 46.225 403.7C45.4383 402.85 44.6516 402.85 43.4715 402.425C43.4715 402.85 43.0781 403.275 43.4715 404.125C43.4715 404.55 43.8649 404.975 44.2582 405.4C43.8649 404.975 43.4715 404.55 42.6848 404.55C42.2914 404.55 42.2914 404.55 41.8981 404.55C41.5047 404.55 41.5047 404.55 41.1113 404.55V404.975C41.1113 405.4 41.5047 405.825 41.5047 406.25C41.5047 406.675 41.8981 407.1 41.5047 406.675C40.718 406.675 39.9313 406.675 39.5379 406.675C39.5379 406.675 39.9313 407.1 40.3246 407.525C41.8981 407.95 42.6848 410.5 44.2582 411.35C45.8317 412.2 49.7653 412.625 49.7653 412.625C49.7653 412.2 50.1586 411.775 50.1586 411.35C50.1586 410.925 50.1586 410.925 50.552 410.5C50.552 410.075 50.552 410.075 50.552 409.65C50.552 408.375 50.552 407.95 50.1586 406.675C49.7652 405.4 48.9785 404.55 48.1918 403.275C47.0117 403.275 46.6184 401.575 46.6184 401.15Z" fill="#002DAA"/>
<path d="M70.6133 438.975C62.7461 429.2 53.6989 420.7 47.7985 409.225C47.4051 408.375 45.8317 409.225 46.225 410.075C52.1254 421.975 61.9594 430.9 69.8266 441.1C71.7934 443.65 73.7602 446.625 75.727 449.6L77.3004 449.175C75.3336 445.775 72.9735 442.375 70.6133 438.975Z" fill="#002DAA"/>
<path d="M109.556 478.075C106.802 476.375 103.655 474.675 100.902 472.975C86.3477 464.05 39.5379 431.325 54.4855 408.8C58.4191 402.85 65.893 400.725 72.9734 400.725C79.2672 400.725 85.5609 401.575 91.8547 403.7C93.0348 404.125 94.6082 404.55 95.7883 404.125C97.7551 403.275 98.5418 400.725 98.5418 398.175C98.9351 391.8 99.3285 385.425 101.689 379.9C107.589 368 123.717 366.3 134.731 372.25C141.025 375.65 147.712 380.75 154.005 377.775C157.546 376.075 159.513 372.675 162.266 369.7C168.953 363.325 178.394 362.05 187.441 361.2C194.128 360.775 201.602 359.925 207.896 363.325C211.436 365.45 214.583 368.425 217.336 372.25C236.218 397.75 229.53 435.575 214.583 461.5C203.175 480.625 187.834 497.2 166.2 495.075C146.532 493.375 127.257 487.425 109.556 478.075Z" fill="#1067DB"/>
<path d="M70.6133 416.45C104.049 437.275 132.764 464.9 164.233 488.7C164.626 488.7 165.02 488.7 165.02 488.275C133.551 464.475 104.836 436.85 71.4 416.025C71.0066 416.025 70.6133 416.45 70.6133 416.45Z" fill="#002DAA"/>
<path d="M81.234 413.9C83.5942 419.425 86.3477 424.525 89.4946 429.625C89.8879 430.05 90.6746 429.625 90.2813 429.2C87.1344 424.525 84.3809 419.425 82.0207 413.9C82.0207 413.05 81.234 413.475 81.234 413.9Z" fill="#002DAA"/>
<path d="M94.6082 417.725C96.575 425.8 99.7219 433.025 104.049 440.25C104.049 440.25 104.836 440.25 104.836 439.825C100.509 433.025 97.3617 425.375 95.3949 417.3C95.3949 417.3 94.6082 417.3 94.6082 417.725Z" fill="#002DAA"/>
<path d="M107.982 427.075C110.736 435.575 113.883 443.65 117.816 451.725C117.816 452.15 118.603 451.725 118.603 451.3C114.67 443.65 111.523 435.15 108.769 426.65L107.982 427.075Z" fill="#002DAA"/>
<path d="M122.143 434.725C124.897 445.775 129.224 455.975 135.124 465.325C135.124 465.75 135.911 465.325 135.911 464.9C130.011 455.55 125.684 445.35 122.93 434.3L122.143 434.725Z" fill="#002DAA"/>
<path d="M133.551 442.8C139.845 455.55 146.925 468.3 154.005 480.625C154.005 481.05 154.792 480.625 154.792 480.2C147.712 467.875 141.025 455.125 134.337 442.375L133.551 442.8Z" fill="#002DAA"/>
<path d="M74.5468 427.925C80.4472 428.35 86.3476 429.625 92.248 431.325C92.6414 431.325 93.0347 430.9 93.0347 430.9C87.1343 429.2 81.234 427.925 75.3336 427.5C74.9402 427.925 74.1535 427.925 74.5468 427.925Z" fill="#002DAA"/>
<path d="M93.4281 441.1C99.7219 442.375 105.622 444.075 111.523 446.625C111.916 446.625 112.309 446.2 112.309 446.2C106.409 443.65 100.115 441.95 94.2149 440.675C93.8215 440.675 93.0348 441.1 93.4281 441.1Z" fill="#002DAA"/>
<path d="M112.703 456.4C118.21 455.55 123.323 458.95 128.83 460.225C129.224 460.225 129.617 459.8 129.224 459.8C123.717 458.525 118.603 455.125 112.703 456.4C112.309 456.4 112.309 455.975 112.703 456.4Z" fill="#002DAA"/>
<path d="M122.143 466.6C129.224 466.6 135.124 470.425 141.811 470.85C141.811 470.85 142.598 470.425 142.205 470.425C138.271 470 135.124 468.3 131.191 467.025C128.437 466.175 125.29 465.75 122.537 465.75C122.143 466.175 121.75 466.6 122.143 466.6Z" fill="#002DAA"/>
<path d="M135.518 476.8C141.811 477.65 148.498 478.075 154.005 481.05C154.399 481.05 154.792 480.625 154.792 480.625C148.892 478.075 142.205 477.65 135.911 476.375C135.518 476.375 134.731 476.8 135.518 476.8Z" fill="#002DAA"/>
<path d="M118.603 379.9C143.385 411.775 161.873 448.325 183.901 482.325C183.901 482.75 184.688 482.325 184.688 482.325C162.659 448.325 144.172 411.775 119.39 379.9C119.39 379.475 118.603 379.475 118.603 379.9Z" fill="#002DAA"/>
<path d="M129.224 381.175C129.617 387.125 130.797 393.075 132.371 399.025C132.371 399.45 133.157 399.45 133.157 399.025C131.584 393.075 130.404 387.55 130.011 381.6C130.404 380.75 129.224 380.75 129.224 381.175Z" fill="#002DAA"/>
<path d="M140.631 389.675C140.238 398.175 140.631 406.25 142.598 414.325C142.598 414.75 143.385 414.75 143.385 414.325C141.418 406.25 141.025 398.175 141.418 389.675C141.418 389.25 140.631 389.25 140.631 389.675Z" fill="#002DAA"/>
<path d="M150.465 403.275C150.465 412.2 150.859 421.125 152.039 430.05C152.039 430.475 152.825 430.475 152.825 430.05C151.645 421.125 150.859 412.2 151.252 403.275H150.465Z" fill="#002DAA"/>
<path d="M161.479 416.025C160.693 427.5 161.479 438.55 164.233 449.6C164.233 450.025 165.02 450.025 165.02 449.6C162.659 438.55 161.479 427.5 162.266 416.025C162.266 415.6 161.479 415.6 161.479 416.025Z" fill="#002DAA"/>
<path d="M169.74 427.5C171.707 441.95 174.067 456.4 177.214 470.425C177.214 470.85 178 470.85 178 470.425C175.247 456.4 172.887 441.95 170.527 427.5C170.527 427.5 169.346 427.5 169.74 427.5Z" fill="#002DAA"/>
<path d="M118.603 392.225C124.11 394.775 129.224 397.75 133.944 401.575H134.731C129.617 397.75 124.504 394.775 118.996 392.225C118.996 391.8 118.21 391.8 118.603 392.225Z" fill="#002DAA"/>
<path d="M132.371 411.35C137.878 414.75 142.991 418.575 147.712 422.825C148.105 422.825 148.892 422.825 148.498 422.825C143.778 418.575 138.664 414.325 133.157 410.925C132.764 410.925 131.977 411.35 132.371 411.35Z" fill="#002DAA"/>
<path d="M145.745 432.6C151.252 433.875 154.792 438.975 159.512 441.95H160.299C155.186 438.55 151.645 433.875 145.745 432.6C145.745 432.175 144.958 432.6 145.745 432.6Z" fill="#002DAA"/>
<path d="M151.252 445.35C157.939 447.9 162.266 453.425 168.166 456.825H168.953C165.413 455.125 162.659 452.15 159.906 449.6C157.546 447.475 154.792 446.2 152.039 445.35C151.645 445.35 150.859 445.35 151.252 445.35Z" fill="#002DAA"/>
<path d="M160.693 460.225C166.2 463.625 172.493 466.175 176.82 470.85H177.607C172.887 466.175 166.593 463.2 161.086 460.225C161.086 459.8 160.299 460.225 160.693 460.225Z" fill="#002DAA"/>
<path d="M189.014 359.5C195.702 400.3 195.308 441.95 198.848 483.175C198.848 483.6 199.635 484.025 199.635 483.6C196.095 442.375 196.882 400.725 189.801 359.925C189.801 359.5 189.014 359.075 189.014 359.5Z" fill="#002DAA"/>
<path d="M197.668 366.3C195.308 371.825 193.341 377.35 192.161 383.3C192.161 383.725 192.948 384.15 192.948 383.725C194.128 377.775 196.095 372.25 198.455 366.725C198.455 366.725 198.062 365.875 197.668 366.3Z" fill="#002DAA"/>
<path d="M203.569 379.9C199.242 386.7 196.095 394.35 194.128 402.425C194.128 402.85 194.915 403.275 194.915 402.85C196.882 394.775 200.422 387.55 204.356 380.75C204.356 380.325 203.962 379.475 203.569 379.9Z" fill="#002DAA"/>
<path d="M205.929 396.9C201.602 404.55 198.062 412.625 194.915 420.7C194.915 421.125 195.702 421.55 195.702 421.125C198.848 412.625 202.389 404.975 206.716 397.325L205.929 396.9Z" fill="#002DAA"/>
<path d="M209.469 413.9C203.569 423.25 199.242 433.45 196.095 444.5C196.095 444.925 196.882 445.35 196.882 444.925C199.635 433.875 203.962 423.675 210.256 414.325C210.256 413.9 209.863 413.475 209.469 413.9Z" fill="#002DAA"/>
<path d="M211.043 428.35C206.322 441.95 201.602 455.55 197.668 469.575C197.668 470 198.455 470.425 198.455 470C202.389 455.975 207.109 442.375 211.829 428.775C211.829 428.35 211.436 427.925 211.043 428.35Z" fill="#002DAA"/>
<path d="M183.114 370.125C186.654 375.225 189.801 380.75 192.161 386.7L192.948 387.125C190.588 381.175 187.441 375.65 183.901 370.55C183.901 370.125 183.114 369.7 183.114 370.125Z" fill="#002DAA"/>
<path d="M186.261 394.35C189.408 400.3 192.161 406.25 194.128 412.625C194.128 413.05 194.915 413.05 194.915 413.05C192.948 406.675 190.195 400.3 187.048 394.35C187.048 394.35 186.261 393.925 186.261 394.35Z" fill="#002DAA"/>
<path d="M188.228 419.85C192.555 424.1 193.341 430.475 195.702 435.575C195.702 436 196.488 436 196.488 435.575C193.735 430.475 192.948 424.1 188.228 419.85C188.228 419.425 187.834 419.425 188.228 419.85Z" fill="#002DAA"/>
<path d="M187.048 433.875C191.768 439.825 192.948 446.625 196.488 453C196.488 453 197.275 453.425 197.275 453C194.915 449.6 194.128 445.775 192.555 441.95C191.375 438.975 189.801 436.425 187.834 433.875C187.441 433.875 186.654 433.875 187.048 433.875Z" fill="#002DAA"/>
<path d="M188.228 451.725C191.375 457.25 195.702 463.2 197.275 469.575C197.275 470 198.062 470 198.062 470C196.095 463.625 192.161 457.675 188.621 451.725C189.014 451.725 188.228 451.3 188.228 451.725Z" fill="#002DAA"/>
<path d="M749.945 496.35H19.0832C18.6899 496.35 18.2965 495.925 18.2965 495.5C18.2965 495.075 18.6899 494.65 19.0832 494.65H749.945C750.338 494.65 750.732 495.075 750.732 495.5C750.732 495.925 750.338 496.35 749.945 496.35Z" fill="#002DAA"/>
<mask id="mask0_266_199" style="mask-type:luminance" maskUnits="userSpaceOnUse" x="110" y="185" width="410" height="296">
<path d="M119.39 185.675L465.94 187.8C471.053 187.8 475.773 192.05 476.56 197.575L519.436 480.625H152.825L110.343 198C109.949 194.6 111.129 191.2 113.883 189.5L119.39 185.675Z" fill="white"/>
</mask>
<g mask="url(#mask0_266_199)">
<path d="M519.436 185.675H517.863V481.05H519.436V185.675Z" fill="#E3EDFE"/>
</g>
<mask id="mask1_266_199" style="mask-type:luminance" maskUnits="userSpaceOnUse" x="110" y="185" width="410" height="296">
<path d="M119.39 185.675L465.94 187.8C471.053 187.8 475.773 192.05 476.56 197.575L519.436 480.625H152.825L110.343 198C109.949 194.6 111.129 191.2 113.883 189.5L119.39 185.675Z" fill="white"/>
</mask>
<g mask="url(#mask1_266_199)">
<path d="M517.863 185.675H503.309V481.05H517.863V185.675Z" fill="#E3EDFE"/>
</g>
<mask id="mask2_266_199" style="mask-type:luminance" maskUnits="userSpaceOnUse" x="110" y="185" width="410" height="296">
<path d="M119.39 185.675L465.94 187.8C471.053 187.8 475.773 192.05 476.56 197.575L519.436 480.625H152.825L110.343 198C109.949 194.6 111.129 191.2 113.883 189.5L119.39 185.675Z" fill="white"/>
</mask>
<g mask="url(#mask2_266_199)">
<path d="M503.309 185.675H488.754V481.05H503.309V185.675Z" fill="#E5EEFE"/>
</g>
<mask id="mask3_266_199" style="mask-type:luminance" maskUnits="userSpaceOnUse" x="110" y="185" width="410" height="296">
<path d="M119.39 185.675L465.94 187.8C471.053 187.8 475.773 192.05 476.56 197.575L519.436 480.625H152.825L110.343 198C109.949 194.6 111.129 191.2 113.883 189.5L119.39 185.675Z" fill="white"/>
</mask>
<g mask="url(#mask3_266_199)">
<path d="M488.754 185.675H474.2V481.05H488.754V185.675Z" fill="#E8F0FE"/>
</g>
<mask id="mask4_266_199" style="mask-type:luminance" maskUnits="userSpaceOnUse" x="110" y="185" width="410" height="296">
<path d="M119.39 185.675L465.94 187.8C471.053 187.8 475.773 192.05 476.56 197.575L519.436 480.625H152.825L110.343 198C109.949 194.6 111.129 191.2 113.883 189.5L119.39 185.675Z" fill="white"/>
</mask>
<g mask="url(#mask4_266_199)">
<path d="M474.2 185.675H459.646V481.05H474.2V185.675Z" fill="#EAF1FE"/>
</g>
<mask id="mask5_266_199" style="mask-type:luminance" maskUnits="userSpaceOnUse" x="110" y="185" width="410" height="296">
<path d="M119.39 185.675L465.94 187.8C471.053 187.8 475.773 192.05 476.56 197.575L519.436 480.625H152.825L110.343 198C109.949 194.6 111.129 191.2 113.883 189.5L119.39 185.675Z" fill="white"/>
</mask>
<g mask="url(#mask5_266_199)">
<path d="M459.646 185.675H445.091V481.05H459.646V185.675Z" fill="#ECF3FE"/>
</g>
<mask id="mask6_266_199" style="mask-type:luminance" maskUnits="userSpaceOnUse" x="110" y="185" width="410" height="296">
<path d="M119.39 185.675L465.94 187.8C471.053 187.8 475.773 192.05 476.56 197.575L519.436 480.625H152.825L110.343 198C109.949 194.6 111.129 191.2 113.883 189.5L119.39 185.675Z" fill="white"/>
</mask>
<g mask="url(#mask6_266_199)">
<path d="M445.091 185.675H430.537V481.05H445.091V185.675Z" fill="#EEF4FE"/>
</g>
<mask id="mask7_266_199" style="mask-type:luminance" maskUnits="userSpaceOnUse" x="110" y="185" width="410" height="296">
<path d="M119.39 185.675L465.94 187.8C471.053 187.8 475.773 192.05 476.56 197.575L519.436 480.625H152.825L110.343 198C109.949 194.6 111.129 191.2 113.883 189.5L119.39 185.675Z" fill="white"/>
</mask>
<g mask="url(#mask7_266_199)">
<path d="M430.537 185.675H415.983V481.05H430.537V185.675Z" fill="#EFF5FE"/>
</g>
<mask id="mask8_266_199" style="mask-type:luminance" maskUnits="userSpaceOnUse" x="110" y="185" width="410" height="296">
<path d="M119.39 185.675L465.94 187.8C471.053 187.8 475.773 192.05 476.56 197.575L519.436 480.625H152.825L110.343 198C109.949 194.6 111.129 191.2 113.883 189.5L119.39 185.675Z" fill="white"/>
</mask>
<g mask="url(#mask8_266_199)">
<path d="M415.983 185.675H401.429V481.05H415.983V185.675Z" fill="#F1F6FE"/>
</g>
<mask id="mask9_266_199" style="mask-type:luminance" maskUnits="userSpaceOnUse" x="110" y="185" width="410" height="296">
<path d="M119.39 185.675L465.94 187.8C471.053 187.8 475.773 192.05 476.56 197.575L519.436 480.625H152.825L110.343 198C109.949 194.6 111.129 191.2 113.883 189.5L119.39 185.675Z" fill="white"/>
</mask>
<g mask="url(#mask9_266_199)">
<path d="M401.429 185.675H386.874V481.05H401.429V185.675Z" fill="#F3F7FF"/>
</g>
<mask id="mask10_266_199" style="mask-type:luminance" maskUnits="userSpaceOnUse" x="110" y="185" width="410" height="296">
<path d="M119.39 185.675L465.94 187.8C471.053 187.8 475.773 192.05 476.56 197.575L519.436 480.625H152.825L110.343 198C109.949 194.6 111.129 191.2 113.883 189.5L119.39 185.675Z" fill="white"/>
</mask>
<g mask="url(#mask10_266_199)">
<path d="M386.874 185.675H372.32V481.05H386.874V185.675Z" fill="#F4F8FF"/>
</g>
<mask id="mask11_266_199" style="mask-type:luminance" maskUnits="userSpaceOnUse" x="110" y="185" width="410" height="296">
<path d="M119.39 185.675L465.94 187.8C471.053 187.8 475.773 192.05 476.56 197.575L519.436 480.625H152.825L110.343 198C109.949 194.6 111.129 191.2 113.883 189.5L119.39 185.675Z" fill="white"/>
</mask>
<g mask="url(#mask11_266_199)">
<path d="M371.927 185.675H357.372V481.05H371.927V185.675Z" fill="#F5F9FF"/>
</g>
<mask id="mask12_266_199" style="mask-type:luminance" maskUnits="userSpaceOnUse" x="110" y="185" width="410" height="296">
<path d="M119.39 185.675L465.94 187.8C471.053 187.8 475.773 192.05 476.56 197.575L519.436 480.625H152.825L110.343 198C109.949 194.6 111.129 191.2 113.883 189.5L119.39 185.675Z" fill="white"/>
</mask>
<g mask="url(#mask12_266_199)">
<path d="M357.372 185.675H342.818V481.05H357.372V185.675Z" fill="#F7FAFF"/>
</g>
<mask id="mask13_266_199" style="mask-type:luminance" maskUnits="userSpaceOnUse" x="110" y="185" width="410" height="296">
<path d="M119.39 185.675L465.94 187.8C471.053 187.8 475.773 192.05 476.56 197.575L519.436 480.625H152.825L110.343 198C109.949 194.6 111.129 191.2 113.883 189.5L119.39 185.675Z" fill="white"/>
</mask>
<g mask="url(#mask13_266_199)">
<path d="M342.818 185.675H328.264V481.05H342.818V185.675Z" fill="#F8FAFF"/>
</g>
<mask id="mask14_266_199" style="mask-type:luminance" maskUnits="userSpaceOnUse" x="110" y="185" width="410" height="296">
<path d="M119.39 185.675L465.94 187.8C471.053 187.8 475.773 192.05 476.56 197.575L519.436 480.625H152.825L110.343 198C109.949 194.6 111.129 191.2 113.883 189.5L119.39 185.675Z" fill="white"/>
</mask>
<g mask="url(#mask14_266_199)">
<path d="M328.264 185.675H313.709V481.05H328.264V185.675Z" fill="#F9FBFF"/>
</g>
<mask id="mask15_266_199" style="mask-type:luminance" maskUnits="userSpaceOnUse" x="110" y="185" width="410" height="296">
<path d="M119.39 185.675L465.94 187.8C471.053 187.8 475.773 192.05 476.56 197.575L519.436 480.625H152.825L110.343 198C109.949 194.6 111.129 191.2 113.883 189.5L119.39 185.675Z" fill="white"/>
</mask>
<g mask="url(#mask15_266_199)">
<path d="M313.709 185.675H299.155V481.05H313.709V185.675Z" fill="#FAFCFF"/>
</g>
<mask id="mask16_266_199" style="mask-type:luminance" maskUnits="userSpaceOnUse" x="110" y="185" width="410" height="296">
<path d="M119.39 185.675L465.94 187.8C471.053 187.8 475.773 192.05 476.56 197.575L519.436 480.625H152.825L110.343 198C109.949 194.6 111.129 191.2 113.883 189.5L119.39 185.675Z" fill="white"/>
</mask>
<g mask="url(#mask16_266_199)">
<path d="M299.155 185.675H284.601V481.05H299.155V185.675Z" fill="#FBFCFF"/>
</g>
<mask id="mask17_266_199" style="mask-type:luminance" maskUnits="userSpaceOnUse" x="110" y="185" width="410" height="296">
<path d="M119.39 185.675L465.94 187.8C471.053 187.8 475.773 192.05 476.56 197.575L519.436 480.625H152.825L110.343 198C109.949 194.6 111.129 191.2 113.883 189.5L119.39 185.675Z" fill="white"/>
</mask>
<g mask="url(#mask17_266_199)">
<path d="M284.601 185.675H270.047V481.05H284.601V185.675Z" fill="#FBFDFF"/>
</g>
<mask id="mask18_266_199" style="mask-type:luminance" maskUnits="userSpaceOnUse" x="110" y="185" width="410" height="296">
<path d="M119.39 185.675L465.94 187.8C471.053 187.8 475.773 192.05 476.56 197.575L519.436 480.625H152.825L110.343 198C109.949 194.6 111.129 191.2 113.883 189.5L119.39 185.675Z" fill="white"/>
</mask>
<g mask="url(#mask18_266_199)">
<path d="M270.047 185.675H255.492V481.05H270.047V185.675Z" fill="#FCFDFF"/>
</g>
<mask id="mask19_266_199" style="mask-type:luminance" maskUnits="userSpaceOnUse" x="110" y="185" width="410" height="296">
<path d="M119.39 185.675L465.94 187.8C471.053 187.8 475.773 192.05 476.56 197.575L519.436 480.625H152.825L110.343 198C109.949 194.6 111.129 191.2 113.883 189.5L119.39 185.675Z" fill="white"/>
</mask>
<g mask="url(#mask19_266_199)">
<path d="M255.492 185.675H240.938V481.05H255.492V185.675Z" fill="#FDFEFF"/>
</g>
<mask id="mask20_266_199" style="mask-type:luminance" maskUnits="userSpaceOnUse" x="110" y="185" width="410" height="296">
<path d="M119.39 185.675L465.94 187.8C471.053 187.8 475.773 192.05 476.56 197.575L519.436 480.625H152.825L110.343 198C109.949 194.6 111.129 191.2 113.883 189.5L119.39 185.675Z" fill="white"/>
</mask>
<g mask="url(#mask20_266_199)">
<path d="M240.938 185.675H226.384V481.05H240.938V185.675Z" fill="#FDFEFF"/>
</g>
<mask id="mask21_266_199" style="mask-type:luminance" maskUnits="userSpaceOnUse" x="110" y="185" width="410" height="296">
<path d="M119.39 185.675L465.94 187.8C471.053 187.8 475.773 192.05 476.56 197.575L519.436 480.625H152.825L110.343 198C109.949 194.6 111.129 191.2 113.883 189.5L119.39 185.675Z" fill="white"/>
</mask>
<g mask="url(#mask21_266_199)">
<path d="M226.384 185.675H211.829V481.05H226.384V185.675Z" fill="#FEFEFF"/>
</g>
<mask id="mask22_266_199" style="mask-type:luminance" maskUnits="userSpaceOnUse" x="110" y="185" width="410" height="296">
<path d="M119.39 185.675L465.94 187.8C471.053 187.8 475.773 192.05 476.56 197.575L519.436 480.625H152.825L110.343 198C109.949 194.6 111.129 191.2 113.883 189.5L119.39 185.675Z" fill="white"/>
</mask>
<g mask="url(#mask22_266_199)">
<path d="M211.829 185.675H197.275V481.05H211.829V185.675Z" fill="#FEFEFF"/>
</g>
<mask id="mask23_266_199" style="mask-type:luminance" maskUnits="userSpaceOnUse" x="110" y="185" width="410" height="296">
<path d="M119.39 185.675L465.94 187.8C471.053 187.8 475.773 192.05 476.56 197.575L519.436 480.625H152.825L110.343 198C109.949 194.6 111.129 191.2 113.883 189.5L119.39 185.675Z" fill="white"/>
</mask>
<g mask="url(#mask23_266_199)">
<path d="M197.275 185.675H182.721V481.05H197.275V185.675Z" fill="#FEFFFF"/>
</g>
<mask id="mask24_266_199" style="mask-type:luminance" maskUnits="userSpaceOnUse" x="110" y="185" width="410" height="296">
<path d="M119.39 185.675L465.94 187.8C471.053 187.8 475.773 192.05 476.56 197.575L519.436 480.625H152.825L110.343 198C109.949 194.6 111.129 191.2 113.883 189.5L119.39 185.675Z" fill="white"/>
</mask>
<g mask="url(#mask24_266_199)">
<path d="M182.721 185.675H168.166V481.05H182.721V185.675Z" fill="white"/>
</g>
<mask id="mask25_266_199" style="mask-type:luminance" maskUnits="userSpaceOnUse" x="110" y="185" width="410" height="296">
<path d="M119.39 185.675L465.94 187.8C471.053 187.8 475.773 192.05 476.56 197.575L519.436 480.625H152.825L110.343 198C109.949 194.6 111.129 191.2 113.883 189.5L119.39 185.675Z" fill="white"/>
</mask>
<g mask="url(#mask25_266_199)">
<path d="M168.166 185.675H153.612V481.05H168.166V185.675Z" fill="white"/>
</g>
<mask id="mask26_266_199" style="mask-type:luminance" maskUnits="userSpaceOnUse" x="110" y="185" width="410" height="296">
<path d="M119.39 185.675L465.94 187.8C471.053 187.8 475.773 192.05 476.56 197.575L519.436 480.625H152.825L110.343 198C109.949 194.6 111.129 191.2 113.883 189.5L119.39 185.675Z" fill="white"/>
</mask>
<g mask="url(#mask26_266_199)">
<path d="M153.612 185.675H139.058V481.05H153.612V185.675Z" fill="white"/>
</g>
<mask id="mask27_266_199" style="mask-type:luminance" maskUnits="userSpaceOnUse" x="110" y="185" width="410" height="296">
<path d="M119.39 185.675L465.94 187.8C471.053 187.8 475.773 192.05 476.56 197.575L519.436 480.625H152.825L110.343 198C109.949 194.6 111.129 191.2 113.883 189.5L119.39 185.675Z" fill="white"/>
</mask>
<g mask="url(#mask27_266_199)">
<path d="M139.058 185.675H124.504V481.05H139.058V185.675Z" fill="white"/>
</g>
<mask id="mask28_266_199" style="mask-type:luminance" maskUnits="userSpaceOnUse" x="110" y="185" width="410" height="296">
<path d="M119.39 185.675L465.94 187.8C471.053 187.8 475.773 192.05 476.56 197.575L519.436 480.625H152.825L110.343 198C109.949 194.6 111.129 191.2 113.883 189.5L119.39 185.675Z" fill="white"/>
</mask>
<g mask="url(#mask28_266_199)">
<path d="M124.504 185.675H109.949V481.05H124.504V185.675Z" fill="white"/>
</g>
<path d="M520.223 481.9H152.432V481.05L109.556 198C109.163 194.175 110.736 190.35 113.49 188.65L118.997 184.825H119.39L465.94 186.95C471.447 186.95 476.56 191.625 477.347 197.575L520.223 481.9ZM153.612 480.2H518.256L475.773 198C474.987 192.9 470.66 188.65 465.94 188.65L119.783 186.525L114.67 189.925C112.309 191.625 110.736 194.6 111.523 197.575L153.612 480.2Z" fill="#002DAA"/>
<path d="M157.546 478.075H523.763L480.887 195.025C480.1 189.5 475.38 185.25 470.266 185.25H122.537C117.423 185.25 113.883 189.5 114.67 195.025L157.546 478.075Z" fill="#1067DB"/>
<path d="M524.157 478.925C523.763 478.925 523.37 478.5 523.37 478.075L480.494 195.025C479.707 189.925 475.38 185.675 470.66 185.675H122.537C120.177 185.675 118.603 186.525 117.03 188.225C115.85 189.925 115.063 192.05 115.456 194.6L154.792 455.125C154.792 455.55 154.399 455.975 154.005 455.975C153.612 455.975 153.219 455.55 153.219 455.125L113.883 194.6C113.489 191.625 114.276 189.075 115.85 186.95C117.423 184.825 119.783 183.975 122.537 183.975H470.266C475.773 183.975 480.887 188.65 481.674 194.6L524.55 477.65C524.943 478.5 524.55 478.925 524.157 478.925Z" fill="#002DAA"/>
<path d="M506.849 462.35L467.12 200.975H130.797L170.133 462.35H506.849Z" fill="#CFE1F8"/>
<path d="M164.626 495.5H665.766C674.027 495.5 680.714 488.275 680.714 479.35C680.714 470.425 674.027 463.2 665.766 463.2H164.626C156.366 463.2 149.679 470.425 149.679 479.35C149.679 488.275 156.366 495.5 164.626 495.5Z" fill="white"/>
<path d="M164.626 484.45H665.766C672.06 484.45 677.567 480.2 679.534 474.25C680.32 475.95 680.714 478.075 680.714 479.775C680.714 488.7 674.027 495.925 665.766 495.925H164.626C156.366 495.925 149.679 488.7 149.679 479.775C149.679 477.65 150.072 475.95 150.859 474.25C152.825 479.775 158.332 484.45 164.626 484.45Z" fill="#EEF4FC"/>
<path d="M523.763 473.825H557.199C563.886 473.825 569.786 470 572.54 463.625H508.422C511.176 470 517.47 473.825 523.763 473.825Z" fill="#CFE1F8"/>
<path d="M665.766 496.35H164.626C155.972 496.35 148.892 488.7 148.892 479.35C148.892 470 155.972 462.35 164.626 462.35H665.766C674.42 462.35 681.5 470 681.5 479.35C681.107 488.7 674.42 496.35 665.766 496.35ZM164.626 464.475C156.759 464.475 150.465 471.275 150.465 479.775C150.465 488.275 156.759 495.075 164.626 495.075H665.766C673.633 495.075 679.927 488.275 679.927 479.775C679.927 471.275 673.633 464.475 665.766 464.475H164.626Z" fill="#002DAA"/>
<path d="M164.626 495.5H425.817C434.077 495.5 440.764 488.275 440.764 479.35C440.764 470.425 434.077 463.2 425.817 463.2H164.626C156.366 463.2 149.679 470.425 149.679 479.35C149.679 488.275 156.366 495.5 164.626 495.5Z" fill="white"/>
<path d="M425.817 496.35H164.626C155.972 496.35 148.892 488.7 148.892 479.35C148.892 470 155.972 462.35 164.626 462.35H425.817C434.471 462.35 441.551 470 441.551 479.35C441.551 488.7 434.471 496.35 425.817 496.35ZM164.626 464.475C156.759 464.475 150.465 471.275 150.465 479.775C150.465 488.275 156.759 495.075 164.626 495.075H425.817C433.684 495.075 439.978 488.275 439.978 479.775C439.978 471.275 433.684 464.475 425.817 464.475H164.626Z" fill="#002DAA"/>
<path d="M198.848 475.95H176.034V483.175H198.848V475.95Z" fill="#002DAA"/>
<path d="M226.384 475.95H203.569V483.175H226.384V475.95Z" fill="#002DAA"/>
<g opacity="0.5">
<path d="M517.863 441.95L490.328 263.025H262.179C261.393 263.025 260.606 263.025 259.819 263.45C259.032 263.875 258.246 263.875 257.852 264.3C254.705 266 252.739 268.975 252.345 273.225C252.345 274.075 252.345 274.925 252.345 275.775L276.734 445.35C277.52 452.15 283.421 457.675 289.714 457.675H519.83L517.863 441.95Z" fill="#1067DB"/>
</g>
<g opacity="0.5">
<path d="M492.295 245.175L483.247 213.725H482.461L460.039 205.225H388.054H359.339H343.998H299.548H296.795H255.099H211.043H166.593L130.404 201.4L146.532 214.15L155.579 245.6C159.513 260.05 173.673 271.525 187.048 271.525C200.422 271.525 207.896 260.05 203.569 245.6C207.502 260.05 221.663 271.525 235.038 271.525C248.412 271.525 255.886 260.05 251.559 245.6C255.492 260.05 269.653 271.525 283.027 271.525C296.402 271.525 303.875 260.05 299.548 245.6C303.482 260.05 317.643 271.525 331.017 271.525C344.391 271.525 351.865 260.05 347.538 245.6C351.472 260.05 365.633 271.525 379.007 271.525C392.381 271.525 399.855 260.05 395.528 245.6C399.462 260.05 413.623 271.525 426.997 271.525C440.371 271.525 447.845 260.05 443.518 245.6C447.452 260.05 461.613 271.525 474.987 271.525C489.148 271.1 496.622 259.625 492.295 245.175Z" fill="#1067DB"/>
</g>
<path d="M280.667 445.35H546.185C552.479 445.35 556.805 439.825 555.625 433.025L531.237 263.45C530.45 256.65 524.55 251.125 518.256 251.125H252.345C246.052 251.125 241.725 256.65 242.905 263.45L267.293 433.025C268.473 439.825 274.373 445.35 280.667 445.35Z" fill="white"/>
<path d="M294.041 416.025H335.738C337.311 416.025 338.098 414.75 338.098 413.05L332.591 374.375C332.197 372.675 331.017 371.4 329.444 371.4H287.748C286.174 371.4 285.388 372.675 285.388 374.375L290.895 413.05C291.288 414.75 292.468 416.025 294.041 416.025Z" fill="#FFBCA7"/>
<path d="M283.421 350.575H325.117C326.69 350.575 327.477 349.3 327.477 347.6L321.97 308.925C321.577 307.225 320.397 305.95 318.823 305.95H277.127C275.554 305.95 274.767 307.225 274.767 308.925L280.274 347.6C280.667 349.3 282.241 350.575 283.421 350.575Z" fill="#B3CDFA"/>
<path d="M339.278 317.85H524.55C524.943 317.85 524.943 317.425 524.943 317.425L523.763 309.775C523.763 309.35 523.37 309.35 522.977 309.35H338.098C337.704 309.35 337.704 309.775 337.704 309.775L338.884 317.425C338.884 317.425 338.884 317.85 339.278 317.85Z" fill="#E1EBFD"/>
<path d="M341.245 333.15H526.517C526.91 333.15 526.91 332.725 526.91 332.725L525.73 325.075C525.73 324.65 525.337 324.65 524.943 324.65H339.671C339.278 324.65 339.278 325.075 339.278 325.075L340.458 332.725C340.458 332.725 340.851 333.15 341.245 333.15Z" fill="#E1EBFD"/>
<path d="M342.818 348.45H394.348C394.741 348.45 394.741 348.025 394.741 348.025L393.561 340.375C393.561 339.95 393.168 339.95 392.775 339.95H341.245C340.851 339.95 340.851 340.375 340.851 340.375L342.031 348.025C342.425 348.025 342.425 348.45 342.818 348.45Z" fill="#E1EBFD"/>
<path d="M347.538 381.6H532.811C533.204 381.6 533.204 381.175 533.204 381.175L532.024 373.525C532.024 373.1 531.631 373.1 531.237 373.1H345.965C345.571 373.1 345.572 373.525 345.572 373.525L346.752 381.175C346.752 381.175 347.145 381.6 347.538 381.6Z" fill="#E1EBFD"/>
<path d="M349.112 396.9H534.777C535.171 396.9 535.171 396.475 535.171 396.475L533.991 388.825C533.991 388.4 533.597 388.4 533.204 388.4H347.932C347.538 388.4 347.538 388.825 347.538 388.825L348.718 396.475L349.112 396.9Z" fill="#E1EBFD"/>
<path d="M351.079 412.2H402.609C403.002 412.2 403.002 411.775 403.002 411.775L401.822 404.125C401.822 403.7 401.429 403.7 401.035 403.7H349.505C349.112 403.7 349.112 404.125 349.112 404.125L350.292 411.775C350.292 411.775 350.685 412.2 351.079 412.2Z" fill="#E1EBFD"/>
<path d="M246.838 291.075L242.905 263.875C242.118 257.075 246.052 251.55 252.345 251.55H517.863C524.157 251.55 530.057 257.075 530.844 263.875L534.777 291.075H246.838Z" fill="#002DAA"/>
<path d="M285.388 271.525C285.781 273.225 287.354 274.925 288.928 274.925C290.501 274.925 291.681 273.225 291.681 271.525C291.288 269.825 289.715 268.125 288.141 268.125C286.174 268.125 284.994 269.4 285.388 271.525Z" fill="#E3EDFE"/>
<path d="M271.62 271.525C272.013 273.225 273.587 274.925 275.16 274.925C276.734 274.925 277.914 273.225 277.914 271.525C277.52 269.825 275.947 268.125 274.373 268.125C272.8 268.125 271.62 269.4 271.62 271.525Z" fill="#E3EDFE"/>
<path d="M258.246 271.525C258.639 273.225 260.213 274.925 261.786 274.925C263.359 274.925 264.539 273.225 264.539 271.525C264.146 269.825 262.573 268.125 260.999 268.125C259.032 268.125 257.852 269.4 258.246 271.525Z" fill="#E3EDFE"/>
<path d="M195.702 267.275C182.327 267.275 168.166 255.8 164.233 241.35L155.186 209.9H203.175L212.223 241.35C216.156 255.8 208.682 267.275 195.702 267.275Z" fill="#FF5722"/>
<path d="M243.691 267.275C230.317 267.275 216.156 255.8 212.223 241.35L203.175 209.9H251.165L260.212 241.35C264.146 255.8 257.066 267.275 243.691 267.275Z" fill="white"/>
<path d="M291.681 267.275C278.307 267.275 264.146 255.8 260.212 241.35L251.165 209.9H299.155L308.202 241.35C312.529 255.8 305.055 267.275 291.681 267.275Z" fill="#FF5722"/>
<path d="M339.671 267.275C326.297 267.275 312.136 255.8 308.202 241.35L299.155 209.9H347.145L356.192 241.35C360.519 255.8 353.045 267.275 339.671 267.275Z" fill="white"/>
<path d="M387.661 267.275C374.287 267.275 360.126 255.8 356.192 241.35L347.145 209.9H395.135L404.182 241.35C408.509 255.8 401.035 267.275 387.661 267.275Z" fill="#FF5722"/>
<path d="M436.044 267.275C422.67 267.275 408.509 255.8 404.575 241.35L395.528 209.9H443.518L452.565 241.35C456.499 255.8 449.025 267.275 436.044 267.275Z" fill="white"/>
<path d="M484.034 267.275C470.66 267.275 456.499 255.8 452.565 241.35L443.518 209.9H491.508L500.555 241.35C504.882 255.8 497.408 267.275 484.034 267.275Z" fill="#FF5722"/>
<path d="M174.854 200.975H130.797L155.186 209.9H203.175L174.854 200.975Z" fill="#FF6838"/>
<path d="M219.303 200.975H174.854L203.175 209.9H251.165L219.303 200.975Z" fill="white"/>
<path d="M263.359 200.975H219.303L251.165 209.9H299.155L263.359 200.975Z" fill="#FF6838"/>
<path d="M307.809 200.975H263.359L299.155 209.9H347.145L307.809 200.975Z" fill="white"/>
<path d="M367.6 200.975H305.055L347.145 209.9H395.528L367.6 200.975Z" fill="#FF6838"/>
<path d="M396.315 200.975H352.259L395.528 209.9H443.518L396.315 200.975Z" fill="white"/>
<path d="M468.3 200.975H396.315L443.518 209.9H491.508L468.3 200.975Z" fill="#FF6838"/>
<path d="M322.363 345.475L332.984 356.525L329.444 360.775L318.823 349.3L316.856 357.8L307.416 332.725L330.23 343.35L322.363 345.475Z" fill="#002DAA"/>
<path d="M307.416 322.95C306.236 322.95 305.449 322.1 305.449 320.825V317C305.449 315.725 306.236 314.875 307.416 314.875C308.596 314.875 309.382 315.725 309.382 317V320.825C308.989 322.1 308.202 322.95 307.416 322.95Z" fill="#002DAA"/>
<path d="M312.923 324.65C312.529 324.65 312.136 324.65 312.136 324.225C311.349 323.8 310.956 322.525 311.349 321.675L315.676 314.025C316.07 313.175 317.25 312.75 318.036 313.175C318.823 313.6 319.216 314.875 318.823 315.725L314.496 323.375C314.103 324.225 313.709 324.65 312.923 324.65Z" fill="#002DAA"/>
<path d="M316.856 328.9C316.07 328.9 315.676 328.475 315.283 328.05C314.889 327.2 314.889 325.925 316.07 325.5L319.61 323.375C320.396 322.95 321.577 322.95 321.97 324.225C322.363 325.075 322.363 326.35 321.183 326.775L317.643 328.9C317.643 328.9 317.25 328.9 316.856 328.9Z" fill="#002DAA"/>
<path d="M326.69 334.85H318.43C317.25 334.85 316.463 334 316.463 332.725C316.463 331.45 317.25 330.6 318.43 330.6H326.69C327.87 330.6 328.657 331.45 328.657 332.725C328.657 334 327.87 334.85 326.69 334.85Z" fill="#002DAA"/>
<path d="M307.022 351.425C305.842 351.425 305.055 350.575 305.055 349.3V344.625C305.055 343.35 305.842 342.5 307.022 342.5C308.202 342.5 308.989 343.35 308.989 344.625V349.3C308.989 350.575 308.202 351.425 307.022 351.425Z" fill="#002DAA"/>
<path d="M297.582 353.125C297.188 353.125 296.795 353.125 296.795 352.7C296.008 352.275 295.615 351 296.008 350.15L300.335 342.5C300.729 341.65 301.909 341.225 302.695 341.65C303.482 342.075 303.875 343.35 303.482 344.2L299.155 351.85C298.762 352.7 297.975 353.125 297.582 353.125Z" fill="#002DAA"/>
<path d="M294.041 342.925C293.255 342.925 292.861 342.5 292.468 342.075C292.075 341.225 292.075 339.95 293.255 339.525L296.795 337.4C297.582 336.975 298.762 336.975 299.155 338.25C299.548 339.1 299.548 340.375 298.368 340.8L294.828 342.925C294.828 342.925 294.435 342.925 294.041 342.925Z" fill="#002DAA"/>
<path d="M296.008 334.85H287.748C286.568 334.85 285.781 334 285.781 332.725C285.781 331.45 286.568 330.6 287.748 330.6H296.008C297.188 330.6 297.975 331.45 297.975 332.725C297.975 334 297.188 334.85 296.008 334.85Z" fill="#002DAA"/>
<path d="M297.582 328.9C297.188 328.9 296.795 328.9 296.795 328.475L293.648 326.35C292.861 325.925 292.468 324.65 292.861 323.8C293.255 322.95 294.435 322.525 295.222 322.95L298.368 325.075C299.155 325.5 299.548 326.775 299.155 327.625C298.762 328.475 298.368 328.9 297.582 328.9Z" fill="#002DAA"/>
<path d="M301.909 324.225C301.122 324.225 300.729 323.8 300.335 323.375L296.402 315.3C296.008 314.45 296.402 313.175 297.188 312.75C297.975 312.325 299.155 312.75 299.548 313.6L303.482 321.675C303.875 322.525 303.482 323.8 302.695 324.225C302.302 324.225 302.302 324.225 301.909 324.225Z" fill="#002DAA"/>
<g opacity="0.5">
<path d="M242.511 295.75C241.725 291.5 238.578 288.525 234.644 288.525H123.323L133.551 354.4H241.725C246.445 354.4 250.379 349.725 249.592 344.625L242.511 295.75Z" fill="#1067DB"/>
</g>
<path d="M84.3809 344.625H231.891C236.611 344.625 240.545 339.95 239.758 334.85L232.677 285.975C231.891 281.725 228.744 278.75 224.81 278.75H77.3004C72.5801 278.75 68.6465 283.425 69.4332 288.525L76.5137 337.4C76.907 341.65 80.4473 344.625 84.3809 344.625Z" fill="#1067DB"/>
<path d="M138.271 305.1H171.313C172.1 305.1 172.887 304.25 172.493 303.4L171.313 294.9C171.313 294.05 170.527 293.625 170.133 293.625H137.091C136.304 293.625 135.518 294.475 135.911 295.325L137.091 303.825C137.091 304.675 137.878 305.1 138.271 305.1Z" fill="white"/>
<path d="M141.025 322.525H221.27C222.057 322.525 222.843 321.675 222.45 320.825L221.27 312.325C221.27 311.475 220.483 311.05 220.09 311.05H139.845C139.058 311.05 138.271 311.9 138.665 312.75L139.845 321.25C139.845 322.1 140.238 322.525 141.025 322.525Z" fill="white"/>
<path d="M126.077 302.975C126.077 302.55 125.684 301.7 124.897 301.275C124.11 301.275 123.717 301.275 123.717 302.125V303.825H88.3144L85.5609 298.725L75.7269 297.875C74.9402 297.875 74.5468 298.3 74.9402 299.15C74.9402 300 75.7269 300.425 76.1203 300.425L84.3808 301.275L98.5418 327.625H100.509H100.902C101.689 329.325 103.655 331.025 105.622 331.025C107.589 331.025 108.769 329.75 108.769 327.625C108.769 327.625 108.769 327.625 109.162 327.625H115.063C115.063 327.625 115.063 327.625 115.456 327.625C116.243 329.325 118.21 331.025 120.177 331.025C122.143 331.025 123.323 329.75 123.323 327.625H123.717H125.684C126.47 327.625 126.47 327.2 126.47 326.35C126.47 325.5 125.684 325.075 124.897 325.075H123.323H122.93C122.143 323.375 120.177 321.675 118.21 321.675C116.243 321.675 115.063 322.95 115.063 325.075C115.063 325.075 115.063 325.075 114.67 325.075H108.769C108.769 325.075 108.769 325.075 108.376 325.075C107.589 323.375 105.622 321.675 103.655 321.675C101.689 321.675 100.509 322.95 100.509 325.075H100.115H99.7219L96.9683 320.4H124.897L125.29 314.875V314.45L126.077 302.975ZM118.603 324.225C119.783 324.225 120.57 325.075 120.963 326.35C121.357 327.625 120.57 328.475 119.783 328.475C118.996 328.475 117.816 327.625 117.423 326.35C117.03 325.075 117.816 324.225 118.603 324.225ZM104.442 324.225C105.622 324.225 106.409 325.075 106.802 326.35C107.196 327.625 106.409 328.475 105.622 328.475C104.442 328.475 103.655 327.625 103.262 326.35C102.869 325.075 103.262 324.225 104.442 324.225ZM93.0347 312.75L91.8547 310.625H122.93V312.75H93.0347ZM123.323 305.95V308.075H90.6746L89.4945 305.95H123.323ZM95.7883 317.425L94.6082 314.875H123.323V317.425H95.7883Z" fill="white"/>
<path d="M173.673 390.95C173.673 390.525 173.673 390.1 173.673 389.675C173.673 389.25 173.673 388.825 173.673 388.4C173.28 386.275 172.887 384.575 172.1 382.45C171.707 382.025 171.707 381.6 171.313 380.75L170.92 380.325C170.527 379.9 170.133 379.05 169.74 378.625L169.347 378.2V377.775L168.56 377.35L168.166 376.925C167.773 376.5 166.986 376.075 166.593 375.65C166.2 375.225 165.806 375.225 165.413 375.225C165.02 375.225 164.626 374.8 164.233 374.8C163.839 374.8 163.446 374.375 163.053 374.375C162.659 374.375 162.659 374.375 162.266 374.375H161.873C161.479 374.375 161.086 374.375 160.299 374.375C159.906 374.375 159.513 374.375 159.119 374.375C158.332 374.375 157.546 374.375 156.759 374.8C155.972 374.8 155.186 375.225 154.792 375.65C153.612 376.075 152.432 376.925 151.252 377.775C150.859 377.775 150.859 378.2 150.465 378.2C149.679 379.05 148.498 379.9 147.712 380.75L146.925 381.6V382.025V382.45C146.925 382.875 146.532 382.875 146.532 383.3C146.532 383.725 146.532 383.725 146.138 384.15V384.575C146.138 385 146.138 385.425 145.745 385.85C145.352 387.55 145.352 389.25 145.745 390.95C145.745 391.8 145.745 392.225 145.745 393.075C145.745 393.5 145.745 394.35 145.745 394.775C145.352 394.775 144.565 394.775 144.172 394.775C143.778 394.775 143.385 394.775 142.598 394.775C142.598 394.35 142.598 393.5 142.598 393.075C142.598 392.225 142.598 391.8 142.598 390.95C142.598 390.1 142.598 389.25 142.598 388.4C142.598 387.55 142.598 386.7 142.205 385.85C142.205 385.425 142.205 385 142.205 385V384.575C142.205 384.15 142.205 384.15 141.811 383.725C141.811 383.725 141.811 383.3 141.418 382.875C141.418 382.875 141.418 382.45 141.025 382.45C141.025 382.025 140.631 381.6 140.631 381.6L139.845 380.75C138.271 378.625 135.911 376.5 133.157 375.65C132.371 375.225 131.584 375.225 130.797 374.8C129.224 374.375 127.65 374.375 126.077 374.375H125.684C125.29 374.375 125.29 374.375 124.897 374.375C124.504 374.375 124.11 374.375 123.717 374.8C123.323 374.8 122.93 375.225 122.537 375.225C122.143 375.225 121.75 375.65 121.75 375.65L121.357 376.075C121.357 376.075 121.357 376.075 120.963 376.075C120.57 376.5 120.177 376.925 119.39 377.35L118.603 377.775L118.21 378.2C117.816 378.625 117.816 378.625 117.423 379.05C117.423 379.475 117.03 379.475 117.03 379.9L116.636 380.325C114.67 383.3 113.883 386.7 114.276 390.525C114.276 391.375 114.276 392.225 114.67 393.075C115.063 395.625 116.243 398.175 117.423 400.3C117.816 400.725 118.21 401.15 118.603 401.575L118.997 402H119.39C119.783 402.425 120.177 402.425 120.57 402.85C120.963 402.85 120.963 403.275 121.357 403.275C122.93 404.125 124.11 404.55 125.29 404.55C125.684 404.55 126.077 404.55 126.077 404.55C126.47 404.55 126.864 404.55 127.257 404.55C128.437 404.55 130.011 404.55 131.191 404.125C131.977 404.125 132.371 403.7 133.157 403.7C133.551 403.7 133.944 403.275 134.338 403.275C134.731 403.275 134.731 403.275 135.124 402.85C135.518 407.525 139.058 410.925 143.385 410.925C147.712 410.925 151.252 407.525 151.645 402.85C152.039 402.85 152.039 402.85 152.432 403.275C152.825 403.275 153.219 403.7 153.612 403.7C154.399 403.7 154.792 404.125 155.579 404.125C156.759 404.55 157.939 404.55 159.513 404.55C159.906 404.55 160.299 404.55 160.693 404.55C161.086 404.55 161.479 404.55 161.479 404.55H161.873C162.659 404.55 163.839 404.125 164.626 403.7C165.02 403.7 165.413 403.275 165.806 403.275C166.2 402.85 166.593 402.85 166.986 402.425L167.38 402H168.953L169.347 401.575C169.347 401.575 169.347 401.575 169.74 401.15L170.133 400.725L170.527 400.3C172.1 398.175 172.887 395.625 173.28 393.075C173.673 392.65 173.673 391.8 173.673 390.95ZM137.878 384.575C137.878 385 138.271 385 138.271 385C138.271 385 138.271 385.425 138.664 385.425C138.664 385.425 138.664 385.425 138.664 385.85C138.664 386.275 139.058 386.275 139.058 386.7C139.451 387.975 139.845 389.675 139.845 390.95C139.845 391.375 139.845 391.8 139.845 392.225C139.845 393.075 139.845 393.925 139.845 394.35C139.845 394.775 139.845 395.2 139.845 395.625V396.05C139.058 396.9 138.271 397.75 137.484 398.6C136.698 398.6 136.304 398.6 135.518 398.6C134.731 398.6 134.338 398.6 133.551 398.6C132.764 398.6 131.977 398.6 131.191 398.175C130.797 398.175 130.797 398.175 130.404 398.175C130.011 398.175 130.011 398.175 129.617 398.175C128.83 398.175 128.437 397.75 128.044 397.75C127.257 397.325 126.864 397.325 126.864 396.9C126.864 396.9 126.47 396.9 126.47 396.475C126.47 396.475 126.47 396.475 126.47 396.05L126.077 395.625L125.684 395.2V394.775C125.29 393.5 124.897 392.225 124.897 391.375V390.95C124.897 390.525 124.897 390.1 124.897 390.1V389.675C124.897 389.25 125.29 389.25 125.29 388.825C125.29 388.825 125.29 388.4 125.684 388.4C125.684 387.975 126.077 387.975 126.077 387.55C126.47 387.125 126.47 387.125 126.864 386.7L127.65 386.275L128.831 385C129.617 384.575 130.404 384.15 131.191 383.725C131.584 383.3 132.371 383.3 132.764 383.3C133.157 383.3 133.157 383.3 133.551 383.3C133.944 383.3 133.944 383.3 134.338 383.3C134.731 383.3 135.124 383.3 135.911 383.725C136.304 383.725 137.091 384.15 137.484 384.575C137.878 384.575 137.878 385 138.271 385L137.878 384.575ZM162.266 395.625L161.873 396.05C162.266 396.475 162.266 396.05 162.266 395.625C162.266 396.05 162.266 396.05 162.266 395.625C161.873 396.05 161.873 396.05 161.873 396.05C161.873 396.05 161.873 396.05 161.479 396.475C161.479 396.475 161.086 396.475 161.086 396.9C160.693 396.9 160.693 397.325 159.906 397.325C159.513 397.75 158.726 397.75 157.939 397.75C157.546 397.75 157.546 397.75 157.152 397.75C156.759 397.75 156.759 397.75 156.366 397.75C155.579 397.75 154.792 398.175 154.005 398.175C153.219 398.175 152.825 398.175 152.039 398.175C151.252 398.175 150.859 398.175 150.072 398.175C149.679 397.325 148.892 396.475 147.712 395.625V395.2C147.712 394.35 147.712 393.5 147.712 393.075C147.712 392.65 147.712 392.225 147.712 391.8C147.712 391.375 147.712 390.95 147.712 390.525C147.712 390.1 147.712 389.675 147.712 389.25C147.712 388.4 147.712 387.975 148.105 387.125C148.105 386.7 148.105 386.275 148.498 386.275C148.498 385.85 148.498 385.85 148.892 385.425C148.892 385.425 148.892 385.425 148.892 385C148.892 384.575 148.892 384.575 149.285 384.575L149.679 384.15L150.465 383.3L150.859 382.875C151.645 382.45 152.825 382.025 154.005 382.025C154.399 382.025 154.792 382.025 155.186 382.025C155.972 382.025 156.366 382.45 156.759 382.45C157.546 382.875 158.332 383.3 159.119 383.725L160.299 385L160.693 385.425L161.086 385.85L161.479 386.275C161.479 386.7 161.873 386.7 161.873 387.125C162.266 387.55 162.266 388.4 162.659 388.825C162.659 389.25 162.659 389.675 162.659 389.675V390.1C162.659 390.525 162.659 390.95 162.659 391.375C162.659 391.8 162.659 392.225 162.659 392.225V392.65C162.659 393.075 162.266 393.5 162.266 393.5C162.266 393.5 162.266 393.5 162.266 393.925C162.659 395.2 162.659 395.625 162.266 395.625C162.659 395.625 162.659 395.625 162.266 395.625Z" fill="#FF5722"/>
<path d="M186.261 494.65H101.689C97.7551 494.65 95.0016 491.25 95.0016 487.425V421.125H193.341V487.425C193.341 491.675 190.195 494.65 186.261 494.65Z" fill="white"/>
<path d="M191.768 403.7H96.1817C94.2149 403.7 92.6414 405.4 92.6414 407.525V417.3C92.6414 419.425 94.2149 421.125 96.1817 421.125H191.768C193.735 421.125 195.308 419.425 195.308 417.3V407.525C195.702 405.4 194.128 403.7 191.768 403.7Z" fill="white"/>
<path d="M89.1012 494.65C92.2481 494.65 95.0016 491.675 95.0016 488.275V421.125H83.2008V488.275C82.8074 492.1 85.561 494.65 89.1012 494.65Z" fill="#F0F5FE"/>
<path d="M83.5942 403.7H88.7078C90.6746 403.7 92.2481 405.4 92.2481 407.525V417.3C92.2481 419.425 90.6746 421.125 88.7078 421.125H83.5942C81.6274 421.125 80.054 419.425 80.054 417.3V407.525C80.054 405.4 81.6274 403.7 83.5942 403.7Z" fill="#F0F5FE"/>
<path d="M93.4281 495.5H84.3809C83.2008 495.5 82.4141 494.65 82.4141 493.375V420.7H95.7883V493.375C95.7883 494.65 94.6082 495.5 93.4281 495.5ZM83.5941 422.4V493.375C83.5941 493.8 83.9875 493.8 83.9875 493.8H93.0348C93.4281 493.8 93.4281 493.375 93.4281 493.375V422.4H83.5941Z" fill="#002DAA"/>
<path d="M90.2813 422.4H80.8406C80.0539 422.4 79.2672 421.55 79.2672 420.7V404.55C79.2672 403.7 80.0539 402.85 80.8406 402.85H90.2813C90.6746 402.85 91.068 403.275 91.068 403.7C91.068 404.125 90.6746 404.55 90.2813 404.55H80.8406V420.7H90.6746C91.068 420.7 91.4613 421.125 91.4613 421.55C91.4613 421.975 90.6746 422.4 90.2813 422.4Z" fill="#002DAA"/>
<path d="M191.768 495.5H96.1816C95.0016 495.5 94.2148 494.65 94.2148 493.375V420.7H194.128V493.375C194.128 494.65 192.948 495.5 191.768 495.5ZM95.7883 422.4V493.375C95.7883 493.8 96.1816 493.8 96.1816 493.8H191.768C192.161 493.8 192.161 493.375 192.161 493.375V422.4H95.7883Z" fill="#002DAA"/>
<path d="M194.915 422.4H93.0348C92.2481 422.4 91.4614 421.55 91.4614 420.7V404.55C91.4614 403.7 92.2481 402.85 93.0348 402.85H194.522C195.308 402.85 196.095 403.7 196.095 404.55V420.7C196.488 421.55 195.702 422.4 194.915 422.4ZM93.0348 404.55V420.7H194.522V404.55H93.0348Z" fill="#002DAA"/>
<path d="M155.579 403.7H132.764V495.075H155.579V403.7Z" fill="#FF5722"/>
<path d="M600.468 250.7L590.634 186.1C589.454 178.025 583.161 172.075 575.687 172.075L518.256 171.65C509.996 171.65 503.702 179.725 504.882 188.65L514.716 253.25C515.896 261.325 522.19 267.275 529.664 267.275L587.094 267.7C595.355 267.7 601.649 259.625 600.468 250.7Z" fill="#1067DB"/>
<path d="M547.758 235.4C551.017 235.4 553.659 232.546 553.659 229.025C553.659 225.504 551.017 222.65 547.758 222.65C544.5 222.65 541.858 225.504 541.858 229.025C541.858 232.546 544.5 235.4 547.758 235.4Z" fill="white"/>
<path d="M562.706 234.55C562.313 234.125 561.919 233.7 561.919 232.85C561.919 230.3 561.526 227.75 560.739 225.625C558.772 220.95 555.232 217.125 550.905 215C548.938 214.15 546.578 213.725 544.218 213.725C543.038 213.725 541.858 212.875 541.858 211.175C541.858 209.9 542.645 208.625 544.218 208.625C546.972 208.625 549.725 209.05 552.479 210.325C557.986 212.875 562.313 217.55 564.673 223.5C565.853 226.475 566.246 229.45 566.246 232.425C566.246 233.7 565.459 234.975 563.886 234.975C563.493 235.4 563.099 234.975 562.706 234.55Z" fill="white"/>
<path d="M572.933 234.125C572.54 233.7 572.147 233.275 572.147 232.425C572.147 228.6 571.36 224.775 570.18 220.95C567.426 213.3 561.919 207.35 554.839 204.375C551.692 203.1 548.152 202.25 544.218 202.25C543.038 202.25 541.858 201.4 541.858 199.7C541.858 198.425 542.645 197.15 544.218 197.15C548.545 197.15 552.479 198 556.412 199.7C564.279 203.1 570.966 210.325 574.113 218.825C575.687 223.075 576.474 227.325 576.474 232C576.474 233.275 575.687 234.55 574.113 234.55C573.72 234.975 573.327 234.55 572.933 234.125Z" fill="white"/>
<g opacity="0.5">
<path d="M538.711 317.425H462.793C458.859 317.425 455.712 321.25 456.499 325.075L462.399 361.2C462.793 363.75 464.759 365.45 467.513 365.45H546.185L538.711 317.425Z" fill="#1067DB"/>
</g>
<path d="M666.553 356.95H460.039C457.679 356.95 455.319 355.25 454.925 352.7L449.025 316.575C448.238 312.75 451.385 308.925 455.319 308.925H661.832C664.193 308.925 666.553 310.625 666.946 313.175L672.847 349.3C673.633 353.125 670.486 356.95 666.553 356.95Z" fill="#002DAA"/>
<path d="M607.155 325.5H512.356C511.963 325.5 511.963 325.5 511.569 325.075L510.389 320.825C510.389 320.4 510.389 319.975 511.176 319.975H605.975C606.369 319.975 606.369 319.975 606.762 320.4L607.942 324.65C607.942 325.075 607.549 325.5 607.155 325.5Z" fill="#4085E2"/>
<path d="M556.019 338.675H515.503C515.109 338.675 515.109 338.675 514.716 338.25L513.536 334C513.536 333.575 513.536 333.15 514.323 333.15H554.839C555.232 333.15 555.232 333.15 555.625 333.575L556.806 337.825C556.806 338.25 556.412 338.675 556.019 338.675Z" fill="white"/>
<path d="M655.539 338.675H564.673C564.279 338.675 564.279 338.675 563.886 338.25L562.706 334C562.706 333.575 562.706 333.15 563.493 333.15H654.359C654.752 333.15 654.752 333.15 655.145 333.575L656.325 337.825C656.325 338.25 656.325 338.675 655.539 338.675Z" fill="white"/>
<path d="M492.295 339.95L491.114 329.325C490.328 322.525 484.427 317 478.134 317C471.84 317 467.513 322.525 468.3 329.325L469.873 339.95C470.266 342.075 469.48 343.775 468.3 345.05H478.527C478.92 347.175 480.887 349.3 482.854 349.3C484.821 349.3 486.394 347.6 486.001 345.05H496.228C493.475 343.775 492.295 342.075 492.295 339.95Z" fill="white"/>
<path d="M488.754 317.85C491.114 317.85 493.868 319.975 494.261 322.95C495.048 325.5 493.475 328.05 490.721 328.05C488.361 328.05 485.607 325.925 485.214 322.95C484.821 319.975 486.394 317.85 488.754 317.85Z" fill="#FF5722"/>
</g>
<defs>
<clipPath id="clip0_266_199">
<rect width="751" height="497" fill="white"/>
</clipPath>
</defs>
</svg>
