<svg width="69" height="67" viewBox="0 0 69 67" fill="none" xmlns="http://www.w3.org/2000/svg">
<path d="M31.6962 64.8219C34.6441 67.726 39.4438 67.726 42.3917 64.8219L65.8613 41.7005C68.8092 38.7963 68.8092 34.0678 65.8613 31.1637L36.4203 2.15949C34.9847 0.779284 33.0596 0.00463667 31.0537 0L7.5841 0C3.42684 0 0.0254517 3.35093 0.0254517 7.44651V30.5679C0.0254517 32.5413 0.81911 34.4401 2.25525 35.8177L31.6962 64.8219ZM16.0876 11.1698C17.3405 11.1698 18.5421 11.6601 19.4281 12.5329C20.314 13.4057 20.8117 14.5895 20.8117 15.8238C20.8117 17.0582 20.314 18.242 19.4281 19.1148C18.5421 19.9876 17.3405 20.4779 16.0876 20.4779C14.8347 20.4779 13.6331 19.9876 12.7471 19.1148C11.8611 18.242 11.3634 17.0582 11.3634 15.8238C11.3634 14.5895 11.8611 13.4057 12.7471 12.5329C13.6331 11.6601 14.8347 11.1698 16.0876 11.1698Z" fill="#FFBC57"/>
</svg>
