<svg width="69" height="44" viewBox="0 0 69 44" fill="none" xmlns="http://www.w3.org/2000/svg">
<path id="Vector" d="M25.1298 33.4833C17.8359 32.5153 11.8241 30.5222 7.09446 27.5042C2.36482 24.4861 0 21.0125 0 17.0833C0 12.3569 3.29137 8.3287 9.87412 4.99858C16.4569 1.66847 24.5622 0.00227778 34.1902 0C43.8204 0 51.9269 1.6662 58.5096 4.99858C65.0924 8.33097 68.3826 12.3592 68.3803 17.0833C68.3803 20.2722 66.8281 23.1627 63.7236 25.7548C60.6191 28.3469 56.5015 30.3821 51.3707 31.8604C50.459 32.1451 49.6475 32.0176 48.9364 31.4777C48.2252 30.9379 47.8685 30.2102 47.8662 29.2945C47.8662 28.2695 48.1659 27.3584 48.7654 26.5612C49.3649 25.7639 50.1478 25.1945 51.1143 24.8528C54.5333 23.7139 57.126 22.419 58.8925 20.9681C60.659 19.5171 61.5423 18.2222 61.5423 17.0833C61.5423 15.2611 59.1057 13.0972 54.2324 10.5917C49.3592 8.08611 42.6784 6.83333 34.1902 6.83333C25.6996 6.83333 19.0177 8.08611 14.1445 10.5917C9.27123 13.0972 6.83575 15.2611 6.83803 17.0833C6.83803 18.45 8.29111 20.0877 11.1973 21.9965C14.1034 23.9053 18.2347 25.3426 23.5912 26.3083L21.5398 24.2583C20.913 23.6319 20.5996 22.8347 20.5996 21.8667C20.5996 20.8986 20.913 20.1014 21.5398 19.475C22.1666 18.8486 22.9644 18.5354 23.9331 18.5354C24.9018 18.5354 25.6996 18.8486 26.3264 19.475L35.2159 28.3583C35.8997 29.0417 36.2416 29.8389 36.2416 30.75C36.2416 31.6611 35.8997 32.4583 35.2159 33.1417L26.3264 42.025C25.6996 42.6514 24.9166 42.9794 23.9776 43.009C23.0385 43.0386 22.2259 42.7106 21.5398 42.025C20.913 41.3986 20.5848 40.6162 20.5551 39.6778C20.5255 38.7393 20.8252 37.9273 21.4543 37.2417L25.1298 33.4833Z" fill="#FFBC57"/>
</svg>
