<svg width="30" height="30" viewBox="0 0 30 30" fill="none" xmlns="http://www.w3.org/2000/svg">
<path fill-rule="evenodd" clip-rule="evenodd" d="M13.125 2.5C11.4308 2.50014 9.76109 2.90546 8.25533 3.68212C6.74957 4.45878 5.45138 5.58427 4.46906 6.96469C3.48674 8.34511 2.84877 9.94043 2.6084 11.6176C2.36802 13.2947 2.5322 15.005 3.08723 16.6057C3.64227 18.2065 4.57207 19.6513 5.79906 20.8197C7.02605 21.988 8.51464 22.846 10.1407 23.322C11.7667 23.798 13.4829 23.8783 15.1463 23.5561C16.8096 23.234 18.3718 22.5187 19.7025 21.47L24.2675 26.035C24.5033 26.2627 24.819 26.3887 25.1468 26.3858C25.4745 26.383 25.788 26.2515 26.0198 26.0198C26.2515 25.788 26.383 25.4745 26.3859 25.1468C26.3887 24.819 26.2627 24.5033 26.035 24.2675L21.47 19.7025C22.705 18.1358 23.474 16.253 23.6889 14.2697C23.9038 12.2863 23.556 10.2825 22.6853 8.48762C21.8146 6.69271 20.4561 5.1792 18.7654 4.12029C17.0747 3.06138 15.12 2.49987 13.125 2.5ZM5.00001 13.125C5.00001 10.9701 5.85604 8.90349 7.37977 7.37976C8.9035 5.85602 10.9701 5 13.125 5C15.2799 5 17.3465 5.85602 18.8703 7.37976C20.394 8.90349 21.25 10.9701 21.25 13.125C21.25 15.2799 20.394 17.3465 18.8703 18.8702C17.3465 20.394 15.2799 21.25 13.125 21.25C10.9701 21.25 8.9035 20.394 7.37977 18.8702C5.85604 17.3465 5.00001 15.2799 5.00001 13.125Z" fill="black"/>
</svg>
