<svg width="183" height="52" viewBox="0 0 183 52" fill="none" xmlns="http://www.w3.org/2000/svg">
<path d="M0 0H92V52H10C4.47715 52 0 47.5228 0 42V0Z" fill="#FFBC57"/>
<path d="M94 0H173C178.523 0 183 4.47715 183 10V52H94V0Z" fill="#313131"/>
<path d="M22.696 38.256C21.0747 38.256 19.6133 37.8933 18.312 37.168C17.0107 36.4213 15.976 35.3867 15.208 34.064C14.4613 32.7413 14.088 31.184 14.088 29.392C14.088 27.5787 14.4613 26.0107 15.208 24.688C15.976 23.3653 17.0107 22.3413 18.312 21.616C19.6133 20.8907 21.0747 20.528 22.696 20.528C24.1467 20.528 25.416 20.848 26.504 21.488C27.592 22.128 28.4347 23.0987 29.032 24.4C29.6293 25.7013 29.928 27.3653 29.928 29.392C29.928 31.3973 29.64 33.0613 29.064 34.384C28.488 35.6853 27.656 36.656 26.568 37.296C25.5013 37.936 24.2107 38.256 22.696 38.256ZM23.56 34.16C24.3707 34.16 25.1067 33.968 25.768 33.584C26.4293 33.2 26.952 32.656 27.336 31.952C27.7413 31.2267 27.944 30.3733 27.944 29.392C27.944 28.3893 27.7413 27.536 27.336 26.832C26.952 26.128 26.4293 25.584 25.768 25.2C25.1067 24.816 24.3707 24.624 23.56 24.624C22.728 24.624 21.9813 24.816 21.32 25.2C20.6587 25.584 20.1253 26.128 19.72 26.832C19.336 27.536 19.144 28.3893 19.144 29.392C19.144 30.3733 19.336 31.2267 19.72 31.952C20.1253 32.656 20.6587 33.2 21.32 33.584C21.9813 33.968 22.728 34.16 23.56 34.16ZM28.072 38V34.48L28.168 29.36L27.848 24.272V14.256H32.84V38H28.072ZM37.4603 38V20.784H42.4523V38H37.4603ZM39.9563 18.384C39.0389 18.384 38.2923 18.1173 37.7163 17.584C37.1403 17.0507 36.8523 16.3893 36.8523 15.6C36.8523 14.8107 37.1403 14.1493 37.7163 13.616C38.2923 13.0827 39.0389 12.816 39.9563 12.816C40.8736 12.816 41.6203 13.072 42.1963 13.584C42.7723 14.0747 43.0603 14.7147 43.0603 15.504C43.0603 16.336 42.7723 17.0293 42.1963 17.584C41.6416 18.1173 40.8949 18.384 39.9563 18.384ZM69.1333 20.528C70.4986 20.528 71.7039 20.8053 72.7493 21.36C73.8159 21.8933 74.6479 22.7253 75.2453 23.856C75.8639 24.9653 76.1733 26.3947 76.1733 28.144V38H71.1813V28.912C71.1813 27.5253 70.8933 26.5013 70.3173 25.84C69.7413 25.1787 68.9306 24.848 67.8853 24.848C67.1599 24.848 66.5093 25.0187 65.9333 25.36C65.3573 25.68 64.9093 26.1707 64.5893 26.832C64.2693 27.4933 64.1093 28.336 64.1093 29.36V38H59.1173V28.912C59.1173 27.5253 58.8293 26.5013 58.2533 25.84C57.6986 25.1787 56.8986 24.848 55.8533 24.848C55.1279 24.848 54.4773 25.0187 53.9013 25.36C53.3253 25.68 52.8773 26.1707 52.5573 26.832C52.2373 27.4933 52.0773 28.336 52.0773 29.36V38H47.0853V20.784H51.8533V25.488L50.9573 24.112C51.5546 22.9387 52.3973 22.0533 53.4853 21.456C54.5946 20.8373 55.8533 20.528 57.2613 20.528C58.8399 20.528 60.2159 20.9333 61.3893 21.744C62.5839 22.5333 63.3733 23.7493 63.7573 25.392L61.9973 24.912C62.5733 23.568 63.4906 22.5013 64.7493 21.712C66.0293 20.9227 67.4906 20.528 69.1333 20.528Z" fill="white"/>
<path d="M148.62 46.05C148.473 46.05 148.35 46 148.25 45.9C148.15 45.8 148.1 45.6767 148.1 45.53C148.1 45.3633 148.157 45.2267 148.27 45.12C148.383 45.0133 148.513 44.96 148.66 44.96C148.807 44.96 148.927 45.01 149.02 45.11C149.12 45.2033 149.17 45.3267 149.17 45.48C149.17 45.5933 149.143 45.6933 149.09 45.78C149.043 45.86 148.977 45.9267 148.89 45.98C148.803 46.0267 148.713 46.05 148.62 46.05ZM152.823 46.05C152.323 46.05 151.889 45.96 151.523 45.78C151.163 45.5933 150.883 45.3333 150.683 45C150.489 44.6667 150.393 44.2733 150.393 43.82C150.393 43.22 150.523 42.6867 150.783 42.22C151.043 41.7467 151.403 41.3767 151.863 41.11C152.329 40.8367 152.859 40.7 153.453 40.7C153.939 40.7 154.356 40.79 154.703 40.97C155.056 41.1433 155.329 41.4033 155.523 41.75L154.923 42.1C154.776 41.8333 154.573 41.6367 154.313 41.51C154.059 41.3833 153.753 41.32 153.393 41.32C152.953 41.32 152.559 41.4267 152.213 41.64C151.866 41.8533 151.593 42.1467 151.393 42.52C151.199 42.8867 151.103 43.31 151.103 43.79C151.103 44.3033 151.253 44.7033 151.553 44.99C151.859 45.2767 152.293 45.42 152.853 45.42C153.193 45.42 153.506 45.3567 153.793 45.23C154.086 45.0967 154.326 44.9067 154.513 44.66L155.023 45.05C154.796 45.3633 154.486 45.61 154.093 45.79C153.699 45.9633 153.276 46.05 152.823 46.05ZM158.33 46.05C157.843 46.05 157.42 45.96 157.06 45.78C156.706 45.5933 156.43 45.3333 156.23 45C156.036 44.6667 155.94 44.2733 155.94 43.82C155.94 43.22 156.07 42.6867 156.33 42.22C156.59 41.7467 156.95 41.3767 157.41 41.11C157.87 40.8367 158.393 40.7 158.98 40.7C159.466 40.7 159.886 40.79 160.24 40.97C160.6 41.15 160.876 41.4067 161.07 41.74C161.27 42.0733 161.37 42.4667 161.37 42.92C161.37 43.52 161.24 44.0567 160.98 44.53C160.72 44.9967 160.36 45.3667 159.9 45.64C159.446 45.9133 158.923 46.05 158.33 46.05ZM158.38 45.42C158.82 45.42 159.21 45.3167 159.55 45.11C159.896 44.8967 160.166 44.6033 160.36 44.23C160.56 43.8567 160.66 43.4333 160.66 42.96C160.66 42.44 160.506 42.0367 160.2 41.75C159.9 41.4633 159.476 41.32 158.93 41.32C158.496 41.32 158.106 41.4267 157.76 41.64C157.413 41.8533 157.14 42.1467 156.94 42.52C156.746 42.8867 156.65 43.31 156.65 43.79C156.65 44.3033 156.8 44.7033 157.1 44.99C157.406 45.2767 157.833 45.42 158.38 45.42ZM169.739 40.7C170.212 40.7 170.596 40.7933 170.889 40.98C171.189 41.16 171.396 41.4233 171.509 41.77C171.622 42.1167 171.629 42.53 171.529 43.01L170.929 46H170.219L170.819 43C170.926 42.48 170.876 42.0733 170.669 41.78C170.469 41.4867 170.102 41.34 169.569 41.34C169.042 41.34 168.599 41.4867 168.239 41.78C167.886 42.0733 167.649 42.5133 167.529 43.1L166.949 46H166.239L166.839 43C166.946 42.48 166.896 42.0733 166.689 41.78C166.482 41.4867 166.116 41.34 165.589 41.34C165.049 41.34 164.602 41.4933 164.249 41.8C163.896 42.1067 163.656 42.5667 163.529 43.18L162.969 46H162.259L163.299 40.75H163.979L163.679 42.26L163.529 42C163.782 41.5467 164.102 41.2167 164.489 41.01C164.876 40.8033 165.312 40.7 165.799 40.7C166.166 40.7 166.479 40.7633 166.739 40.89C167.006 41.01 167.212 41.19 167.359 41.43C167.512 41.6633 167.596 41.9433 167.609 42.27L167.239 42.19C167.499 41.69 167.842 41.3167 168.269 41.07C168.702 40.8233 169.192 40.7 169.739 40.7Z" fill="white"/>
<path d="M144.623 21.5878C135.977 18.8159 130.013 29.12 121.367 26.333L118.382 11.7989C127.026 14.5708 132.99 4.26669 141.637 7.05366L144.623 21.5861L144.623 21.5878Z" fill="#FED501"/>
<path d="M119.863 18.2162C128.465 20.952 134.403 10.7741 143.007 13.5248L141.524 6.36433C132.92 3.62853 126.983 13.7948 118.379 11.0574L119.863 18.2162Z" fill="#0467D5"/>
<path style="mix-blend-mode:multiply" opacity="0.25" d="M141.937 11.8227L142.946 16.7171L143.942 21.5869C135.302 18.8252 129.33 29.1205 120.689 26.332L117.7 11.7916C126.342 14.5767 132.3 4.28182 140.954 7.04642L141.934 11.8312L141.934 11.8194L141.937 11.8227Z" fill="url(#paint0_linear_201_26)"/>
<rect x="116.594" y="11.3705" width="2.30308" height="15.9776" transform="rotate(-10 116.594 11.3705)" fill="white"/>
<path d="M117.647 42.9025C116.434 43.1164 115.3 43.0402 114.244 42.674C113.204 42.3049 112.324 41.6885 111.603 40.8245C110.882 39.9606 110.409 38.8905 110.184 37.6142C109.959 36.3379 110.039 35.1784 110.423 34.1357C110.805 33.0773 111.422 32.1969 112.273 31.4944C113.14 30.7892 114.18 30.3296 115.393 30.1157C116.449 29.9296 117.443 29.9978 118.378 30.3205C119.312 30.6432 120.115 31.2328 120.785 32.0893C121.472 32.943 121.94 34.0789 122.191 35.4971C122.441 36.9152 122.397 38.1414 122.059 39.1757C121.738 40.2073 121.194 41.0423 120.43 41.6808C119.662 42.3035 118.735 42.7108 117.647 42.9025ZM117.486 40.8837C118.274 40.7448 118.951 40.4386 119.518 39.9651C120.1 39.4887 120.514 38.8877 120.76 38.162C121.018 37.4178 121.07 36.6045 120.914 35.7221C120.756 34.824 120.431 34.0852 119.939 33.5059C119.459 32.908 118.865 32.4848 118.155 32.2363C117.461 31.985 116.72 31.9288 115.932 32.0677C115.128 32.2094 114.443 32.5171 113.877 32.9906C113.311 33.4642 112.897 34.0652 112.635 34.7936C112.371 35.5063 112.318 36.3118 112.476 37.2099C112.632 38.0923 112.959 38.8389 113.456 39.4498C113.951 40.0449 114.546 40.4681 115.24 40.7194C115.934 40.9707 116.683 41.0254 117.486 40.8837ZM122.09 41.973L121.494 38.5931L121.123 35.661L120.374 32.7955L118.903 24.4522L121.172 24.0521L124.264 41.5896L122.09 41.973ZM136.333 39.4614L135.866 36.8143L135.661 36.3388L134.865 31.8244C134.695 30.8632 134.281 30.1727 133.622 29.7527C132.976 29.3142 132.094 29.1936 130.975 29.3909C130.234 29.5215 129.532 29.7753 128.867 30.1525C128.2 30.5138 127.658 30.9424 127.242 31.4382L125.996 29.9032C126.551 29.2693 127.253 28.7392 128.104 28.313C128.968 27.8682 129.896 27.5583 130.889 27.3833C132.607 27.0805 134.004 27.2646 135.081 27.9358C136.158 28.607 136.848 29.8014 137.15 31.5189L138.484 39.0822L136.333 39.4614ZM132.246 40.3284C131.316 40.4923 130.469 40.4792 129.704 40.2891C128.955 40.0962 128.343 39.7574 127.868 39.2726C127.39 38.772 127.088 38.1672 126.963 37.4581C126.843 36.7806 126.893 36.1383 127.111 35.5312C127.344 34.9214 127.794 34.3871 128.461 33.9284C129.143 33.4669 130.107 33.1264 131.351 32.907L135.322 32.2068L135.61 33.8376L131.733 34.5211C130.599 34.7212 129.868 35.045 129.541 35.4926C129.214 35.9403 129.097 36.4319 129.192 36.9677C129.3 37.5822 129.632 38.0355 130.187 38.3275C130.739 38.6038 131.449 38.6655 132.315 38.5127C133.166 38.3627 133.873 38.043 134.437 37.5537C135.016 37.0616 135.384 36.4282 135.54 35.6533L136.264 37.1341C136.095 37.9275 135.672 38.6114 134.993 39.186C134.312 39.7448 133.396 40.1256 132.246 40.3284ZM156.124 22.9338C157.132 22.756 158.057 22.7959 158.899 23.0537C159.74 23.3115 160.444 23.8047 161.012 24.5333C161.594 25.2591 161.994 26.2365 162.211 27.4656L163.482 34.6743L161.213 35.0744L159.988 28.1256C159.774 26.9123 159.329 26.0485 158.654 25.534C157.978 25.0195 157.128 24.8525 156.104 25.0331C155.347 25.1665 154.713 25.4407 154.202 25.8559C153.69 26.271 153.331 26.8137 153.124 27.4838C152.933 28.1511 152.918 28.9417 153.079 29.8556L154.217 36.308L151.948 36.7081L150.723 29.7593C150.509 28.546 150.064 27.6821 149.388 27.1676C148.729 26.6504 147.879 26.4834 146.839 26.6668C146.098 26.7974 145.472 27.0702 144.96 27.4854C144.449 27.9006 144.089 28.4432 143.883 29.1133C143.676 29.7834 143.653 30.5754 143.814 31.4893L144.952 37.9417L142.683 38.3418L140.474 25.815L142.649 25.4316L143.236 28.7642L142.732 27.9759C142.981 27.087 143.475 26.3419 144.214 25.7405C144.953 25.1391 145.866 24.7425 146.953 24.5508C148.151 24.3396 149.235 24.457 150.208 24.903C151.177 25.3332 151.901 26.1234 152.38 27.2737L151.392 27.0581C151.601 26.0302 152.126 25.1415 152.969 24.3917C153.811 23.642 154.863 23.156 156.124 22.9338Z" fill="white"/>
<defs>
<linearGradient id="paint0_linear_201_26" x1="119.194" y1="19.0862" x2="142.46" y2="14.3288" gradientUnits="userSpaceOnUse">
<stop offset="0.13" stop-color="#F6F6F6"/>
<stop offset="0.34" stop-color="#DFE0E0"/>
<stop offset="0.54" stop-color="#C4C5C6"/>
<stop offset="0.57" stop-color="#C1C2C3"/>
<stop offset="0.69" stop-color="#BEBFC0"/>
<stop offset="0.91" stop-color="white"/>
<stop offset="1" stop-color="white"/>
</linearGradient>
</defs>
</svg>
