<svg width="30" height="33" viewBox="0 0 30 33" fill="none" xmlns="http://www.w3.org/2000/svg">
<path d="M19.31 11.1068L21.94 13.9274L15.3237 20.7938C14.7225 21.4294 13.9263 21.7485 13.1287 21.7485C12.3313 21.7485 11.5263 21.4268 10.915 20.7833L7.445 17.236L10.055 14.3956L13.1213 17.5314L19.31 11.1094V11.1068ZM30 16.4725C30 25.1982 23.2712 32.2967 15 32.2967C6.72875 32.2967 0 25.1982 0 16.4725C0 7.74678 6.72875 0.648315 15 0.648315C23.2712 0.648315 30 7.74678 30 16.4725ZM26.25 16.4725C26.25 9.9292 21.2038 4.60436 15 4.60436C8.79625 4.60436 3.75 9.9292 3.75 16.4725C3.75 23.0158 8.79625 28.3406 15 28.3406C21.2038 28.3406 26.25 23.0158 26.25 16.4725Z" fill="black"/>
</svg>
